<svg width="7" height="11" viewBox="0 0 7 11" fill="none" xmlns="http://www.w3.org/2000/svg">
<path id="Vector" d="M6.17606 5.50392C6.17606 5.67862 6.10618 5.83003 5.96642 5.95814L1.03988 10.5353C0.923414 10.6517 0.777831 10.7071 0.603131 10.7012C0.428431 10.6954 0.282848 10.6285 0.166381 10.5003C0.0499143 10.3722 -0.00540738 10.2208 0.000415952 10.0461C0.00623929 9.87142 0.0732076 9.72584 0.201321 9.60937L4.6387 5.50392L0.201321 1.381C0.0732076 1.26453 0.00623929 1.11895 0.000415952 0.944249C-0.00540738 0.769549 0.0499143 0.618142 0.166381 0.490029C0.282848 0.361916 0.428431 0.297859 0.603131 0.297859C0.777831 0.297859 0.923414 0.356092 1.03988 0.472559L5.96642 5.0497C6.10618 5.15452 6.17606 5.30593 6.17606 5.50392Z" fill="#0E0E0E"/>
</svg>
