<svg width="46" height="47" viewBox="0 0 46 47" fill="none" xmlns="http://www.w3.org/2000/svg">
<g id="Vector">
<path d="M23.11 19.3926V28.3122H35.5476C35.0014 31.1807 33.3625 33.6096 30.9044 35.2428L38.4047 41.0426C42.7747 37.0227 45.2958 31.1181 45.2958 24.1039C45.2958 22.4708 45.1488 20.9003 44.8756 19.3929L23.11 19.3926Z" fill="#4285F4"/>
<path d="M10.1583 27.9641L8.4667 29.2546L2.47891 33.9027C6.28161 41.4194 14.0755 46.6121 23.1095 46.6121C29.3492 46.6121 34.5809 44.5601 38.4047 41.0426L30.9044 35.2428C28.8455 36.6247 26.2188 37.4623 23.1095 37.4623C17.1009 37.4623 11.9957 33.4213 10.1678 27.9774L10.1583 27.9641Z" fill="#34A853"/>
<path d="M2.47893 13.2579C0.903311 16.3566 0 19.8533 0 23.5802C0 27.3071 0.903294 30.804 2.47891 33.9027C2.47891 33.9235 10.1685 27.9561 10.1685 27.9561C9.70631 26.5742 9.43311 25.1086 9.43311 23.5799C9.43311 22.0513 9.70631 20.5857 10.1685 19.2038L2.47893 13.2579Z" fill="#FBBC05"/>
<path d="M23.11 9.71935C26.5136 9.71935 29.5389 10.8918 31.955 13.1532L38.5728 6.5578C34.56 2.83091 29.3499 0.548523 23.11 0.548523C14.076 0.548523 6.28163 5.72018 2.47893 13.2579L10.1685 19.2038C11.9962 13.7599 17.1013 9.71935 23.11 9.71935Z" fill="#EA4335"/>
</g>
</svg>
