<svg width="148" height="149" viewBox="0 0 148 149" fill="none" xmlns="http://www.w3.org/2000/svg">
<g id="Group 65569">
<path id="Vector" d="M61.2329 147.371C60.4018 147.078 59.7599 146.878 59.3073 146.766C55.2001 145.753 52.7551 145.123 51.9797 144.874C43.1124 142.01 35.1429 137.754 28.075 132.111C10.96 118.443 1.07238 98.6081 0.0632111 76.54C-0.0629349 73.8835 0.000138082 71.253 0.24872 68.6522C2.09268 49.1737 10.0176 32.9046 24.0235 19.8448C33.4585 11.048 45.4498 4.71842 58.454 1.88014C62.7466 0.945172 66.9985 0.347833 71.2095 0.0844108C74.9902 -0.14933 79.2717 0.102962 84.0542 0.833866C89.0221 1.59445 93.4446 2.62959 97.3143 3.93557C111.376 8.68089 123.048 16.9175 132.327 28.6491C141.606 40.3843 147.383 55.1583 147.932 70.1696C148.025 72.6406 148.021 75.3194 147.929 78.2059C147.454 93.0169 141.721 107.817 132.702 119.363C123.697 130.887 112.411 139.094 98.8429 143.987C97.0324 144.637 95.3071 145.175 93.6635 145.594C91.5636 146.132 89.2447 146.614 87.0186 147.371C86.7552 147.46 86.4806 147.516 86.2061 147.538C77.8396 148.202 69.7106 148.191 61.8228 147.497C61.6224 147.479 61.4221 147.438 61.2329 147.371Z" fill="#FDB813"/>
<path id="Vector_2" d="M144.437 74.2919C144.437 113.119 112.96 144.596 74.1332 144.596C35.3062 144.596 3.82904 113.119 3.82904 74.2919C3.82904 35.4612 35.3025 3.98779 74.1332 3.98779C112.96 3.98779 144.437 35.4649 144.437 74.2919Z" fill="#231F20"/>
<path id="Vector_3" d="M142.423 74.2846C142.423 111.999 111.847 142.574 74.1332 142.574C36.4192 142.574 5.84369 111.999 5.84369 74.2846C5.84369 36.567 36.4155 5.99512 74.1332 5.99512C111.847 5.99512 142.423 36.5707 142.423 74.2846Z" fill="#FDB813"/>
<path id="Vector_4" d="M73.9588 17.9678L74.0404 17.0959C74.0552 16.9327 74.1999 16.8139 74.3595 16.8251C74.7639 16.851 75.1201 16.4912 75.4317 15.7454C75.4911 15.6007 76.6672 13.1706 78.9564 8.45121C79.012 8.33249 79.1382 8.26199 79.268 8.27312L81.0897 8.45121C81.2418 8.46605 81.3717 8.57736 81.4125 8.72576C82.5033 12.5287 83.3641 15.3225 83.9948 17.1145C84.0616 17.2963 84.2879 17.4929 84.6775 17.7007C84.8036 17.7712 84.8889 17.8936 84.9075 18.0383C84.9446 18.3166 84.9223 18.6134 84.837 18.9325C84.8036 19.0623 84.6812 19.1476 84.5476 19.1365L80.1362 18.7098C80.0064 18.6987 79.9136 18.5837 79.9247 18.4538L79.9989 17.6562C80.0064 17.5671 80.0694 17.4929 80.1548 17.4669L80.9153 17.2443C81.0675 17.1998 81.1602 17.044 81.1157 16.8919L80.7966 15.7974C80.7558 15.6527 80.6297 15.5451 80.4775 15.5302L77.899 15.2816C77.7283 15.2668 77.5688 15.3596 77.502 15.5117L77.0122 16.6062C76.9529 16.7397 77.0048 16.8993 77.1347 16.9698C77.3313 17.0811 77.5205 17.1367 77.6986 17.1404C77.8916 17.1442 78.0474 17.3074 78.04 17.504C78.04 17.5115 78.04 17.5189 78.04 17.5263L77.9695 18.3054C77.9472 18.5095 77.7654 18.6542 77.5613 18.6356L74.2407 18.3166C74.0701 18.3017 73.9439 18.1496 73.9588 17.9789V17.9678Z" fill="#231F20"/>
<path id="Vector_5" d="M61.5111 19.359C61.3924 19.3108 61.2551 19.3665 61.2069 19.4889C61.2032 19.5 61.1995 19.5112 61.1958 19.5223C61.1846 19.5705 61.1735 19.6113 61.1661 19.6447C61.0808 20.0343 60.7097 20.3163 60.3387 20.2717C60.1272 20.2458 59.9529 20.1196 59.8675 19.9267C59.5151 19.1438 59.0847 18.0679 58.5764 16.6988C58.5319 16.5727 58.5912 16.4354 58.7137 16.3798L59.5744 15.9754C59.7154 15.9123 59.8824 15.9531 59.9714 16.0792C61.218 17.7859 63.1139 18.5947 65.0321 17.6004C65.4699 17.3778 65.6517 16.8472 65.4365 16.4206C65.3994 16.3464 65.3512 16.2759 65.2918 16.2165C65.0247 15.9383 64.6388 15.775 64.1379 15.7268C62.3645 15.5487 61.2143 15.4188 60.6875 15.3372C57.4337 14.8363 57.1406 11.0594 59.9417 9.65693C61.0177 9.11895 62.2161 9.02991 63.5369 9.38979C63.6111 9.40834 63.6927 9.40463 63.7669 9.37495C63.8894 9.3193 63.9747 9.2451 64.0229 9.14492C64.2084 8.79246 64.6314 8.63292 64.9653 8.78875C65.0915 8.84811 65.1916 8.94457 65.2547 9.06701C65.3512 9.25623 65.7741 10.1392 66.5199 11.7124C66.5792 11.8385 66.5459 11.9869 66.4383 12.076C66.0672 12.3728 65.7073 12.5138 65.3623 12.5026C65.225 12.4989 65.0952 12.4358 65.0061 12.332C64.0415 11.2004 62.8802 10.7366 61.526 10.9369C60.6689 11.0668 60.2682 11.4638 60.3202 12.1316C60.3313 12.2726 60.4129 12.3987 60.5391 12.4692C60.9769 12.7215 61.3998 12.8625 61.8042 12.8959C64.1899 13.0888 67.2063 13.0109 67.7071 15.5784C68.3861 19.0325 64.0415 20.3905 61.5111 19.359Z" fill="#231F20"/>
<path id="Vector_6" d="M86.7886 19.2142C86.7033 19.1178 86.5548 19.1066 86.4584 19.192C86.4472 19.1994 86.4398 19.2105 86.4324 19.2179C86.4027 19.255 86.3768 19.2884 86.3545 19.3144C86.0985 19.6223 85.6421 19.704 85.3342 19.4962C85.1598 19.3775 85.0634 19.1882 85.0708 18.9805C85.1079 18.1234 85.2081 16.9733 85.3713 15.5226C85.3861 15.3927 85.5012 15.2926 85.6347 15.2963L86.5882 15.326C86.7404 15.3334 86.8665 15.4447 86.8925 15.5968C87.2375 17.6782 88.5621 19.255 90.7214 19.2291C91.2111 19.2254 91.6081 18.8358 91.6081 18.3572C91.6081 18.2755 91.597 18.1939 91.571 18.116C91.4597 17.745 91.1926 17.4259 90.7659 17.1588C89.2633 16.2016 88.2986 15.5671 87.8645 15.2592C85.1895 13.3484 86.629 9.84974 89.7567 9.86087C90.9588 9.86458 92.0682 10.3246 93.081 11.2373C93.1404 11.2893 93.2146 11.3227 93.2962 11.3301C93.4261 11.3338 93.5374 11.3041 93.6264 11.2411C93.9492 11.011 94.3982 11.0593 94.6245 11.3449C94.7098 11.4525 94.758 11.5861 94.758 11.7234C94.758 11.9386 94.7395 12.9143 94.695 14.6507C94.695 14.788 94.5985 14.9104 94.4612 14.9401C93.9975 15.0403 93.6116 15.0032 93.3111 14.8362C93.1886 14.7694 93.1033 14.6544 93.0699 14.5208C92.7174 13.0813 91.8938 12.1463 90.5915 11.716C89.7716 11.4451 89.2373 11.6158 88.9813 12.2354C88.9256 12.3652 88.9405 12.5174 89.0221 12.6361C89.3004 13.0553 89.6157 13.3707 89.9608 13.5822C91.9977 14.8288 94.7209 16.1199 94.0123 18.6354C93.0625 22.0191 88.5806 21.2697 86.7886 19.2142Z" fill="#231F20"/>
<path id="Vector_7" d="M50.4065 21.574C48.8891 17.9232 48.084 15.9605 47.9875 15.686C47.9578 15.6044 47.8947 15.5339 47.8168 15.4931C47.5905 15.378 47.316 15.404 46.9932 15.5673C46.8225 15.6526 46.6147 15.5858 46.5294 15.4189C46.5257 15.4077 46.522 15.4003 46.5183 15.3892L46.2066 14.61C46.1361 14.4282 46.2252 14.2242 46.4033 14.1537L53.9164 11.1559C54.0202 11.1151 54.139 11.141 54.2169 11.2189L56.3243 13.3226C56.4727 13.471 56.4727 13.7122 56.3243 13.8606L55.675 14.5099C55.5525 14.6323 55.3559 14.6323 55.2335 14.5099C55.2335 14.5099 55.2298 14.5062 55.2261 14.5024C53.7346 12.9442 52.0576 13.5415 50.4696 14.4245C50.3731 14.4765 50.3286 14.5952 50.3694 14.6991L51.1115 16.5542C51.182 16.7323 51.386 16.8213 51.5678 16.7508C51.5827 16.7434 51.5975 16.736 51.6123 16.7286L52.41 16.2685C52.6289 16.1423 52.7031 15.8604 52.577 15.6415L52.3692 15.2742C52.269 15.0998 52.3247 14.8772 52.4991 14.777C52.5176 14.7659 52.5325 14.7585 52.551 14.751L53.1892 14.495C53.3784 14.4208 53.5936 14.5136 53.6715 14.7028L55.0665 18.2015C55.1296 18.3647 55.048 18.5465 54.8884 18.6096C54.8773 18.6133 54.8662 18.617 54.855 18.6207L54.1612 18.8063C53.9609 18.8582 53.7531 18.7469 53.69 18.5465C53.3598 17.5188 52.7143 17.7674 51.9797 18.1755C51.8943 18.2238 51.8572 18.3276 51.8943 18.4167L52.7959 20.6725C52.8664 20.8506 53.0667 20.9396 53.2448 20.8728C55.2965 20.1048 56.7917 19.2812 56.7175 16.7619C56.7138 16.6247 56.8214 16.5097 56.9587 16.5059L57.9382 16.4726C58.1052 16.4651 58.2424 16.595 58.2498 16.7619L58.3686 20.4239C58.3723 20.55 58.2944 20.6576 58.1756 20.6947C55.2817 21.5963 52.666 22.6723 50.3323 23.9189C50.1802 24.0005 49.9873 23.9448 49.9057 23.789C49.9019 23.7779 49.8945 23.7705 49.8908 23.7593L49.5458 22.8986C49.4864 22.7502 49.5606 22.5832 49.709 22.5238C49.7202 22.5201 49.7276 22.5164 49.7387 22.5127C50.3731 22.3383 50.5958 22.0267 50.4065 21.574Z" fill="#231F20"/>
<path id="Vector_8" d="M78.4035 13.6118L79.4164 11.4562C79.4498 11.382 79.5352 11.3523 79.6094 11.3857C79.6465 11.4042 79.6761 11.4376 79.6873 11.4784L80.3069 13.7788C80.3291 13.8567 80.2809 13.9346 80.203 13.9568C80.1881 13.9606 80.1696 13.9643 80.1547 13.9606L78.5223 13.8159C78.4444 13.8084 78.385 13.7379 78.3924 13.66C78.3924 13.6452 78.3998 13.6266 78.4035 13.6118Z" fill="#FDB813"/>
<path id="Vector_9" d="M95.1995 22.0785C95.1624 22.1119 95.1328 22.1379 95.1068 22.1602C94.8063 22.4273 94.3425 22.4384 94.0679 22.1824C93.9121 22.0377 93.849 21.8337 93.8899 21.6296C94.0605 20.7911 94.3388 19.6669 94.7284 18.2608C94.7655 18.1346 94.8916 18.053 95.0252 18.079L95.9601 18.2571C96.1123 18.2867 96.2198 18.4203 96.2198 18.5724C96.2347 20.6835 97.2958 22.4458 99.4329 22.7612C99.9152 22.8354 100.372 22.5126 100.446 22.0414C100.461 21.9598 100.461 21.8745 100.446 21.7929C100.394 21.4107 100.179 21.0508 99.8002 20.7206C98.4645 19.5408 97.6075 18.7654 97.229 18.3906C94.8842 16.0829 96.8543 12.8513 99.9449 13.3522C101.128 13.5451 102.152 14.1722 103.013 15.2333C103.065 15.2926 103.132 15.3372 103.21 15.3557C103.34 15.3817 103.451 15.3705 103.551 15.3223C103.911 15.1479 104.345 15.2667 104.523 15.5894C104.59 15.7082 104.612 15.8417 104.594 15.9753C104.56 16.1868 104.39 17.1477 104.074 18.8581C104.052 18.9954 103.937 19.0993 103.796 19.1067C103.321 19.1327 102.946 19.0362 102.676 18.8247C102.568 18.7394 102.497 18.6132 102.486 18.476C102.364 16.9956 101.696 15.9419 100.479 15.3149C99.7111 14.9179 99.1546 15.0069 98.8058 15.5783C98.7316 15.697 98.7242 15.8492 98.7836 15.979C98.9951 16.4391 99.2548 16.799 99.5627 17.0624C101.381 18.6132 103.87 20.3125 102.776 22.687C101.31 25.8815 96.9953 24.4419 95.5483 22.1305C95.4815 22.0192 95.3368 21.9858 95.2255 22.0563C95.2144 22.0637 95.2033 22.0711 95.1958 22.0785H95.1995Z" fill="#231F20"/>
<path id="Vector_10" d="M42.8007 22.1601L44.2959 23.5699C44.3479 23.6219 44.4332 23.6219 44.4851 23.5699C44.5148 23.5403 44.5297 23.4957 44.5222 23.4549C44.4109 22.5459 44.2959 21.9115 44.1772 21.5516C44.1401 21.444 44.1178 21.3327 44.1104 21.2177C44.0177 19.7967 43.8284 18.6725 43.539 17.8377C43.4092 17.4593 43.0567 17.4259 42.4816 17.7412C42.3778 17.7969 42.2479 17.7598 42.1885 17.6596L41.7062 16.8248C41.6431 16.7172 41.684 16.58 41.7916 16.5169L44.8784 14.7323C45.0046 14.6581 45.1678 14.7026 45.242 14.8288L45.6798 15.5856C45.7577 15.7192 45.7132 15.8862 45.5834 15.9678C45.3162 16.131 45.1938 16.3277 45.2198 16.5577C45.2902 17.2292 45.728 20.2234 46.5257 25.54C46.548 25.6884 46.4775 25.8369 46.3439 25.9111L44.7597 26.8275C44.6484 26.8905 44.5074 26.8831 44.4109 26.8015C42.1292 24.9724 40.1628 23.377 38.5155 22.008C38.4524 21.9597 37.9664 21.6518 37.0499 21.0878C36.9757 21.0433 36.8793 21.0396 36.8051 21.0878L36.5417 21.2399C36.4155 21.3104 36.256 21.2696 36.1855 21.1472L35.6994 20.305C35.6215 20.1714 35.6698 20.0007 35.8033 19.9265C35.8033 19.9265 35.8033 19.9265 35.807 19.9265L39.3614 17.9342C39.6842 17.7524 40.096 17.8711 40.2741 18.1939C40.3965 18.4128 40.3854 18.6836 40.2481 18.8914C40.1999 18.9656 40.1183 19.0435 40.007 19.1214C39.8548 19.229 39.7918 19.422 39.8548 19.5963C39.9847 19.9562 40.1888 20.2642 40.4744 20.5165C41.1682 21.1249 41.9288 21.6629 42.7562 22.1304C42.7747 22.1415 42.7896 22.1526 42.8007 22.1638V22.1601Z" fill="#231F20"/>
<path id="Vector_11" d="M113.628 27.5843C111.899 30.0516 108.423 30.6044 105.866 28.8124C103.31 27.0204 102.635 23.5662 104.364 21.0989C106.093 18.6317 109.569 18.0789 112.125 19.8709C114.682 21.6629 115.357 25.1171 113.628 27.5843Z" fill="#231F20"/>
<path id="Vector_12" d="M111.261 26.0455C112.53 24.367 112.566 22.2549 111.34 21.3279C110.114 20.4009 108.092 21.01 106.822 22.6885C105.553 24.3669 105.517 26.479 106.743 27.406C107.969 28.3331 109.991 27.7239 111.261 26.0455Z" fill="#FDB813"/>
<path id="Vector_13" d="M37.0722 25.8072C38.4042 27.4471 39.0869 28.2893 39.124 28.3338C39.3354 28.5898 39.6471 28.5416 40.0626 28.1892C40.2482 28.0333 40.5227 28.0593 40.6785 28.2411L41.0162 28.6418C41.1683 28.8199 41.146 29.087 40.9679 29.2354L37.5694 32.1182C37.4729 32.1998 37.3245 32.1887 37.2392 32.0885L36.6827 31.4318C36.5936 31.3242 36.5936 31.1684 36.6827 31.0645L37.0574 30.623C37.2392 30.4078 37.2429 30.0925 37.0648 29.8736C36.9387 29.7177 36.2783 28.9015 35.0799 27.4286C33.8815 25.9519 33.2174 25.1357 33.0912 24.9836C32.9131 24.7647 32.6052 24.7053 32.3566 24.8389L31.8483 25.1134C31.7259 25.1802 31.5738 25.1505 31.4884 25.0392L30.9579 24.3602C30.88 24.2564 30.8948 24.108 30.9987 24.03L34.5122 21.2919C34.694 21.1472 34.9574 21.1806 35.1021 21.3624L35.4249 21.778C35.5733 21.9672 35.5399 22.238 35.3507 22.3901C34.9166 22.7241 34.8053 23.0209 35.0131 23.2769C35.0502 23.3251 35.7366 24.1673 37.0685 25.8035L37.0722 25.8072Z" fill="#231F20"/>
<path id="Vector_14" d="M126.38 74.2548C126.38 103.113 102.987 126.505 74.1295 126.505C45.2717 126.505 21.8791 103.109 21.8791 74.2548C21.8791 45.3971 45.2717 22.0044 74.1295 22.0044C102.987 22.0044 126.38 45.3971 126.38 74.2548Z" fill="#231F20"/>
<path id="Vector_15" d="M124.328 74.2772C124.328 102.007 101.848 124.487 74.1183 124.487C46.3885 124.487 23.9085 102.007 23.9085 74.2772C23.9085 46.5473 46.3885 24.0674 74.1183 24.0674C101.848 24.0674 124.328 46.5473 124.328 74.2772Z" fill="#FDB813"/>
<path id="Vector_16" d="M30.0451 34.0178L27.0251 30.9421C26.8173 30.7269 26.4722 30.7232 26.2608 30.931C26.2571 30.9347 26.2533 30.9384 26.2459 30.9458C25.6523 31.5617 25.9157 32.9122 26.2608 33.7433C26.3461 33.9548 26.2496 34.1922 26.0419 34.2813C26.0382 34.2813 26.0344 34.2813 26.027 34.285C25.8267 34.3555 25.6486 34.4556 25.4965 34.5818C25.3332 34.7154 25.0884 34.6931 24.9548 34.5298C24.9325 34.5039 24.914 34.4742 24.8991 34.4408L23.5746 31.5246C23.4744 31.302 23.5746 31.0423 23.7898 30.9421C23.8306 30.9236 23.8751 30.9124 23.9196 30.905L24.2424 30.8642C24.3983 30.8456 24.5355 30.764 24.632 30.6379C25.4853 29.4877 26.4685 28.3747 27.5779 27.3024C27.9526 26.9351 28.2012 26.501 28.3199 25.9927C28.3941 25.6811 28.7058 25.4844 29.0211 25.5586C29.0545 25.5661 29.0842 25.5772 29.1139 25.5883L32.1637 26.872C32.2972 26.9277 32.3603 27.0835 32.3046 27.2208L32.0041 27.9332C31.9151 28.1446 31.6776 28.2559 31.4513 28.1892C30.4087 27.8738 29.4923 27.8961 28.7058 28.2559C28.5054 28.3487 28.4201 28.5824 28.5091 28.7828C28.5166 28.7976 28.524 28.8125 28.5351 28.8273C28.7688 29.202 29.1102 29.6027 29.5517 30.0368C29.8337 30.3114 31.0469 31.4504 33.1877 33.4576C33.4771 33.7322 33.926 33.7322 34.1857 33.4576C34.1894 33.4539 34.1931 33.4502 34.1968 33.4465C34.271 33.3649 34.3823 33.2906 34.5345 33.2202C34.6569 33.1645 34.8016 33.1868 34.9018 33.2758L35.4472 33.773C35.5362 33.8509 35.5436 33.9845 35.4657 34.0698C35.4657 34.0698 35.4657 34.0735 35.462 34.0772L32.7091 37.1121C32.5384 37.2976 32.275 37.357 32.0449 37.2605L31.3919 36.986C31.2176 36.9118 31.1359 36.7114 31.2101 36.5408C31.2361 36.474 31.2843 36.4183 31.3437 36.3812C31.6665 36.1772 31.8223 35.9397 31.8038 35.6615C31.7964 35.5872 31.7741 35.513 31.7333 35.4463C31.3437 34.797 30.8391 34.3592 30.2195 34.1329C30.1527 34.1069 30.0934 34.0698 30.0451 34.0216V34.0178Z" fill="#231F20"/>
<path id="Vector_17" d="M123.549 30.6119C123.987 30.5711 124.388 30.8717 124.443 31.2835C124.465 31.443 124.432 31.5988 124.35 31.7361C123.816 32.6191 123.286 33.4428 122.759 34.2034C122.625 34.3963 122.377 34.4742 122.158 34.3889L121.675 34.2071C121.423 34.1106 121.297 33.8324 121.393 33.5801C121.397 33.569 121.401 33.5578 121.408 33.5467C121.85 32.6154 121.976 31.7435 121.787 30.931C121.271 28.6826 118.637 28.3673 117.082 29.7178C113.732 32.6266 114.941 36.5148 119.731 36.1624C119.82 36.1549 119.895 36.2217 119.902 36.3108C119.902 36.3145 119.902 36.3182 119.902 36.3219V37.3867C119.902 37.4127 119.883 37.435 119.857 37.4424C117.019 37.921 114.934 37.1196 113.602 35.0308C111.71 32.0626 113.268 28.1818 116.507 26.9982C118.759 26.1746 120.128 27.0316 121.935 28.1929C122.384 28.4823 122.822 29.1909 123.256 30.3188C123.293 30.4153 123.352 30.4969 123.434 30.5637C123.475 30.5971 123.516 30.6157 123.549 30.6119Z" fill="#231F20"/>
<path id="Vector_18" d="M71.7215 43.4641C71.7104 49.827 71.7215 53.207 71.7623 53.604C71.844 54.4388 72.0072 54.8729 72.9385 54.8691C74.7082 54.858 76.1737 54.8543 77.335 54.858C79.2569 54.8654 80.919 54.4165 82.9374 54.0121C83.1674 53.9676 83.39 53.8934 83.5978 53.7932L86.6587 52.3388C86.7218 52.3091 86.7811 52.2757 86.8368 52.2349L88.8922 50.7768C89.0184 50.6878 89.1964 50.7137 89.2855 50.8399C89.3189 50.8881 89.3374 50.9438 89.3374 51.0031C89.3374 51.1775 89.2113 51.4335 88.9553 51.7637C87.7087 53.3777 86.7255 54.6948 86.0057 55.7076C85.8833 55.882 85.6829 55.9859 85.4714 55.9859H65.1619C65.0729 55.9859 64.9987 55.9154 64.9987 55.8227C64.9987 55.7967 65.0024 55.7744 65.0135 55.7522C65.2287 55.3107 65.5478 55.0101 65.9707 54.858C66.0969 54.8135 66.2082 54.7244 66.2861 54.6094C66.7313 53.9379 66.9539 53.2107 66.9539 52.4278C66.9651 42.4957 66.9614 36.834 66.9354 35.4501C66.928 34.9937 66.6905 34.5077 66.2193 33.992C65.1953 32.8752 64.5646 32.1258 64.3234 31.7473C64.201 31.5507 64.2604 31.291 64.457 31.1685C64.5238 31.1277 64.6017 31.1055 64.6796 31.1055H85.5605C85.6681 31.1055 85.7682 31.1648 85.8239 31.2576L88.3208 35.5799C88.4359 35.784 88.3617 36.04 88.1576 36.155C87.9832 36.2515 87.768 36.2144 87.6345 36.066C86.373 34.5893 83.9836 33.6135 82.6851 33.0348C82.2399 32.8233 81.7501 32.7157 81.253 32.7194L72.0146 32.8381C71.8811 32.8381 71.7735 32.9494 71.7735 33.083V41.3456C71.7735 41.468 71.8662 41.5719 71.9924 41.5867C73.5172 41.7351 75.0347 41.7871 76.541 41.7388C78.0399 41.6906 78.8265 41.0636 79.1419 39.6537C79.1938 39.42 79.4238 39.2716 79.6576 39.3235C79.7652 39.3458 79.8616 39.4126 79.9247 39.5016L83.134 44.1913C83.3121 44.4473 83.249 44.8034 82.993 44.9815C82.7927 45.1188 82.5255 45.1151 82.3289 44.9704C80.8931 43.913 79.2272 43.3119 77.3387 43.1747C75.2684 43.0263 73.4616 43.0485 71.9144 43.2452C71.8068 43.26 71.7252 43.3528 71.7215 43.4641Z" fill="#231F20"/>
<path id="Vector_19" d="M19.7717 40.3288C19.998 40.5143 21.137 41.2749 23.1887 42.6068C24.3797 43.3786 25.9602 43.8423 26.7023 42.2433C27.2291 41.1116 27.0028 40.2064 26.0233 39.52C24.8398 38.6926 23.7415 37.9691 22.7324 37.357C21.8345 36.8078 21.1741 36.8858 20.7474 37.5907C20.7103 37.6501 20.6324 37.6686 20.5731 37.6315L19.6381 37.0305C19.6047 37.0082 19.5936 36.9637 19.6121 36.9266L21.4598 33.7247C21.5971 33.4835 21.905 33.4019 22.1425 33.5392C22.1833 33.5614 22.2167 33.5874 22.2501 33.6208L22.8511 34.2219C22.9142 34.2886 22.9142 34.3925 22.8474 34.4593C22.8474 34.4593 22.84 34.4667 22.8363 34.4667C22.5765 34.6782 22.4912 34.9119 22.584 35.1605C22.6285 35.2793 22.8177 35.4499 23.1553 35.6688C24.0458 36.2476 25.1291 36.9043 26.4054 37.6389C31.3956 40.5069 26.8358 47.7492 22.8029 45.1557C22.2612 44.807 21.7937 44.666 21.3782 44.3803C20.7511 43.9462 19.6789 43.3229 18.1577 42.503C18.013 42.4213 17.8275 42.4733 17.7459 42.618L17.4342 43.156C17.3749 43.2598 17.2413 43.2932 17.1411 43.2339C17.1152 43.219 17.0929 43.2005 17.0744 43.1745C16.9371 42.9853 16.7293 42.8369 16.451 42.7367C16.2618 42.6662 16.1617 42.4584 16.2321 42.2655C16.2396 42.2395 16.2544 42.2173 16.2655 42.195L18.7476 38.3179C18.7959 38.24 18.8886 38.2066 18.9777 38.2363C19.4934 38.4032 19.7531 38.6889 19.7494 39.0933C19.7494 39.1712 19.7346 39.2491 19.7012 39.3233C19.6307 39.4829 19.6084 39.7203 19.627 40.0357C19.6344 40.1507 19.6863 40.2546 19.7754 40.3288H19.7717Z" fill="#231F20"/>
<path id="Vector_20" d="M120.169 39.019C120.822 38.5553 122.414 37.4793 124.948 35.7949C125.322 35.5463 125.504 35.1197 125.393 34.7561C125.359 34.6522 125.274 34.5483 125.129 34.4481C125.04 34.385 125.018 34.2589 125.081 34.1698C125.096 34.1513 125.115 34.1327 125.133 34.1179L125.99 33.528C126.105 33.4464 126.265 33.476 126.346 33.5948L128.858 37.2604C128.921 37.3495 128.91 37.4719 128.832 37.5498L128.176 38.2065C128.061 38.3178 127.882 38.3141 127.775 38.2065C127.756 38.188 127.741 38.1657 127.727 38.1434C127.385 37.509 127.029 37.3235 126.654 37.5943C125.393 38.4996 123.608 39.8204 121.304 41.5605C121.148 41.6755 121.119 41.8944 121.234 42.0503C121.256 42.0799 121.286 42.1096 121.315 42.1282L122.417 42.8776C122.51 42.9407 122.625 42.9704 122.74 42.9593L131.541 42.0354C131.693 42.0206 131.834 42.1022 131.897 42.2395L132.598 43.7829C132.706 44.0204 132.661 44.2986 132.49 44.4953C130.253 47.0293 128.454 49.0291 127.096 50.4872C126.691 50.9213 126.547 51.348 126.665 51.7635C126.732 51.9972 126.617 52.2421 126.395 52.346L125.805 52.6131C125.578 52.7133 125.311 52.6131 125.207 52.3868L123.43 48.4726C123.36 48.3167 123.426 48.135 123.579 48.0645L124.165 47.7973C124.317 47.7268 124.499 47.7639 124.617 47.8827L125.089 48.3539C125.174 48.4392 125.311 48.4392 125.397 48.3539L126.28 47.4708C126.365 47.3855 126.391 47.2556 126.339 47.1443L125.185 44.6029C125.133 44.4878 125.007 44.4248 124.885 44.447L123.564 44.6993C123.415 44.7253 123.311 44.8589 123.319 45.0073C123.326 45.2336 123.382 45.4302 123.49 45.5935C123.582 45.7419 123.538 45.9385 123.389 46.035C123.378 46.0424 123.363 46.0498 123.352 46.0535L122.629 46.3837C122.44 46.4691 122.221 46.3875 122.132 46.2019L120.896 43.679C120.866 43.6197 120.826 43.5677 120.774 43.5306C119.917 42.9036 119.312 42.1801 118.959 41.3602C118.956 41.349 118.948 41.3416 118.941 41.3305L117.776 39.6572C117.698 39.5422 117.713 39.3901 117.809 39.2899L118.492 38.6109C118.574 38.5293 118.703 38.5293 118.781 38.6109L119.108 38.9337C119.39 39.2157 119.835 39.2528 120.158 39.0228L120.169 39.019Z" fill="#231F20"/>
<path id="Vector_21" d="M39.7695 44.9296C39.7213 44.9074 39.6953 44.8517 39.7138 44.8035C39.725 44.7738 39.7547 44.7515 39.788 44.7478C43.7097 44.1356 47.6351 44.0206 51.5567 44.3991C51.6977 44.4139 51.7979 44.54 51.783 44.681C51.7756 44.7552 51.7348 44.8183 51.6754 44.8628L49.8055 46.1428C49.5755 46.3024 49.5198 46.614 49.6757 46.8441C49.6831 46.8552 49.6905 46.8626 49.6979 46.8737C50.106 47.3857 50.6069 47.9423 51.2043 48.547C57.9976 55.422 64.6054 61.8629 71.0314 67.8696C72.6528 69.3834 74.2148 71.1346 75.8101 72.4183C75.9029 72.4925 76.0402 72.4814 76.1218 72.3923C76.9455 71.4908 80.318 68.0366 86.2394 62.0335C91.8307 56.3607 95.9527 52.0717 98.598 49.1666C99.4848 48.1946 100.305 47.1965 101.058 46.1688C101.229 45.9351 101.258 45.6234 101.132 45.36C100.616 44.2655 99.6963 43.7424 98.3717 43.7906C98.1714 43.798 98.0007 43.6422 97.9933 43.4418C97.9933 43.4122 97.9933 43.3825 98.0007 43.3528V43.3417C98.0601 43.0782 98.2975 42.8927 98.5646 42.9076C100.861 43.0226 104.033 43.0374 108.081 42.9558C108.738 42.9447 109.343 42.9929 109.896 43.1079C110.022 43.1302 110.111 43.2489 110.088 43.3751C110.07 43.4826 109.981 43.5643 109.873 43.5717C106.504 43.9613 104.152 45.4379 101.652 47.8866C99.0581 50.4244 96.5834 52.9621 94.2312 55.4999C92.6024 57.2585 91.0701 58.8576 89.6417 60.3009C85.9649 64.011 82.4885 67.8659 79.3125 71.1457C78.6929 71.7839 78.0103 72.6149 77.2608 73.639C77.1792 73.7503 77.194 73.9098 77.2942 74.0063C79.639 76.2398 81.1008 77.6571 81.6759 78.2618C82.6888 79.3192 83.8204 80.4323 85.0633 81.5973C87.7309 84.0979 89.3411 85.8825 91.6526 88.0493C92.851 89.1698 93.9752 90.2457 95.0251 91.2771C99.7445 95.9037 102.33 98.4155 102.783 98.8125C105.135 100.879 107.421 102.211 110.76 102.133C111.057 102.126 111.298 102.363 111.305 102.66C111.305 102.675 111.305 102.69 111.305 102.701L111.298 102.797C111.283 103.038 111.083 103.228 110.842 103.228H98.1899C97.9191 103.22 97.7002 102.998 97.7076 102.723C97.7113 102.493 97.8746 102.3 98.0972 102.252L99.7037 101.948C99.9782 101.896 100.175 101.654 100.167 101.373C100.153 100.749 99.9894 100.282 99.674 99.9738C96.6131 96.9945 91.7862 92.2566 85.1858 85.7527C84.0579 84.6396 82.4031 83.048 80.2252 80.974C78.6855 79.5085 77.0456 77.8982 75.3056 76.147C75.2054 76.0432 75.0421 76.0394 74.9345 76.1359C73.2279 77.6163 71.9107 79.2079 70.115 80.9703C66.3715 84.6396 61.7745 89.5 58.5467 92.8651C55.0628 96.4936 52.948 98.7086 52.2023 99.51C51.7348 100.011 51.0967 100.797 50.2916 101.87C50.1914 102.003 50.2211 102.192 50.3546 102.289C50.3769 102.304 50.3991 102.319 50.4251 102.33C51.4046 102.701 52.4323 102.883 53.512 102.871C53.7569 102.871 53.9646 103.053 53.9869 103.294V103.309C54.0129 103.524 53.8533 103.714 53.6381 103.736C53.627 103.736 53.6159 103.736 53.6085 103.736L42.1959 103.877C42.0698 103.877 41.9696 103.777 41.9659 103.654C41.9659 103.643 41.9659 103.632 41.9659 103.617V103.606C41.9919 103.45 42.1143 103.324 42.2702 103.298C44.897 102.827 47.6685 102.092 49.6126 100.263C50.6737 99.2688 51.7274 98.2226 52.7774 97.1207C60.2905 89.2402 67.0282 81.8904 73.7436 74.919C73.8066 74.8522 73.8029 74.7483 73.7399 74.6852C64.2567 65.3912 55.9273 57.2177 48.7555 50.1573C48.0543 49.4709 47.4162 48.8513 46.8374 48.3022C45.2606 46.8144 43.5093 45.9239 41.6802 45.4527C40.5412 45.1559 39.9031 44.9816 39.7658 44.9296H39.7695Z" fill="#231F20"/>
<path id="Vector_22" d="M126.788 44.2434L129.307 43.9651C129.378 43.9577 129.441 44.0059 129.448 44.0764C129.452 44.1135 129.441 44.1506 129.415 44.1766L127.686 46.0317C127.638 46.0836 127.56 46.0836 127.508 46.0354C127.497 46.0243 127.489 46.0131 127.482 46.002L126.688 44.4252C126.658 44.3621 126.68 44.2879 126.743 44.2545C126.758 44.2471 126.773 44.2434 126.788 44.2434Z" fill="#FDB813"/>
<path id="Vector_23" d="M15.3306 51.3631C16.2989 52.4576 17.6086 52.9473 19.2559 52.8323C21.0183 52.7099 21.9569 51.8528 22.0719 50.2537C22.1536 49.1295 21.9161 48.1501 21.3596 47.3153C21.278 47.1891 21.3076 47.0185 21.4338 46.9331C21.7714 46.6994 22.0719 46.5695 22.3391 46.5361C22.4764 46.5213 22.6025 46.6029 22.647 46.7328L23.3668 48.9106C23.3668 48.9106 23.3705 48.9366 23.3742 48.9515C23.556 50.2982 23.4076 51.4818 22.9364 52.5021C21.0739 56.5054 16.0726 56.702 13.7018 53.0326C13.1935 52.2498 12.9041 51.4892 12.8262 50.7583C12.6295 48.8995 13.2232 47.4043 14.6071 46.269C14.7221 46.1762 14.774 46.0278 14.7481 45.8831L14.6516 45.3748C14.5848 45.0261 14.8148 44.6922 15.1599 44.6254C15.2378 44.6105 15.3231 44.6105 15.401 44.6254L18.6029 45.245C18.7254 45.2672 18.8033 45.3823 18.781 45.5047C18.781 45.5047 18.781 45.5047 18.781 45.5084L18.6215 46.3395C18.5881 46.5064 18.4397 46.6326 18.2653 46.6326C16.4436 46.6549 15.2193 47.4117 14.5848 48.9032C14.5217 49.0553 14.4995 49.2149 14.5217 49.3744C14.6368 50.2203 14.9039 50.8845 15.3306 51.3631Z" fill="#231F20"/>
<path id="Vector_24" d="M136.765 53.5855C137.228 54.9991 137.462 55.704 137.462 55.7077C137.51 55.8376 137.573 55.96 137.655 56.0713L138.267 56.9098C138.434 57.1398 138.386 57.4589 138.16 57.6222C138.156 57.6222 138.149 57.6296 138.145 57.6333L135.366 59.5366C135.281 59.596 135.162 59.5774 135.099 59.4884L134.531 58.6573C134.457 58.5497 134.479 58.4013 134.579 58.316C135.366 57.6741 135.8 56.8356 135.878 55.8005C135.893 55.5742 135.722 55.3812 135.5 55.3664C135.448 55.3664 135.396 55.3664 135.344 55.3849L129.01 57.5294C128.814 57.5962 128.706 57.8114 128.773 58.008L128.951 58.5386C128.988 58.6462 128.944 58.7686 128.843 58.8206C128.42 59.0506 128.087 59.1508 127.845 59.1211C127.712 59.1062 127.593 59.0209 127.534 58.8985C127.534 58.8985 127.307 58.2121 126.859 56.843C126.41 55.474 126.183 54.7913 126.183 54.7876C126.157 54.654 126.202 54.513 126.298 54.4203C126.476 54.2533 126.803 54.1383 127.281 54.0715C127.393 54.0567 127.5 54.1235 127.534 54.2348L127.708 54.7653C127.771 54.9657 127.983 55.077 128.183 55.0139L134.553 52.977C134.769 52.9065 134.88 52.6728 134.809 52.4613C134.795 52.4131 134.769 52.3686 134.735 52.3277C134.056 51.5412 133.21 51.1219 132.197 51.0737C132.068 51.0663 131.96 50.9587 131.956 50.8288L131.919 49.8234C131.915 49.7158 131.997 49.6267 132.101 49.623C132.101 49.623 132.101 49.623 132.105 49.623L135.474 49.5043C135.756 49.4932 135.989 49.7158 136 49.9978C136 50.0052 136 50.0089 136 50.0163V51.0552C136.004 51.1924 136.026 51.3297 136.067 51.4633C136.067 51.4633 136.301 52.1719 136.765 53.5818V53.5855Z" fill="#231F20"/>
<path id="Vector_25" d="M14.9818 72.7004C14.9002 72.7783 14.9002 72.9082 14.9818 72.9898L14.9893 72.9972L16.6069 74.4627C16.644 74.4961 16.6885 74.5184 16.7368 74.5221C16.9742 74.5518 17.0818 74.3774 17.0632 74.0027C17.0521 73.8283 17.1857 73.6762 17.3638 73.6651C17.3712 73.6651 17.3749 73.6651 17.3823 73.6651H18.2097C18.3915 73.6651 18.5362 73.8097 18.5362 73.9915V78.0023C18.5362 78.1544 18.41 78.2768 18.2579 78.2768H17.4268C17.271 78.2768 17.13 78.1766 17.0781 78.0245L16.8481 77.3456C16.8184 77.2639 16.7739 77.186 16.7108 77.1192L13.405 73.5946C13.3197 73.5018 13.1713 73.4981 13.0785 73.5834C13.0785 73.5834 13.0748 73.5871 13.0711 73.5909L9.78759 76.8706C9.69484 76.9671 9.63177 77.0821 9.59838 77.212L9.52046 77.5607C9.48707 77.698 9.36835 77.7945 9.22736 77.7945H8.35176C8.21819 77.7945 8.1106 77.6832 8.1106 77.5496V72.4889C8.1106 72.3183 8.25158 72.1773 8.42225 72.1773H9.26446C9.45368 72.1773 9.60951 72.3294 9.60951 72.5186C9.60951 72.5335 9.60951 72.552 9.60951 72.5668C9.5724 72.8117 9.59838 73.0084 9.68371 73.1568C9.74678 73.2681 9.88777 73.3052 9.99908 73.2421C10.0176 73.231 10.0325 73.2198 10.0473 73.205L11.2605 71.9918C11.3793 71.873 11.383 71.6801 11.2605 71.5577C11.2568 71.554 11.2531 71.5503 11.2457 71.5465L10.0139 70.4298C9.936 70.3593 9.81728 70.3667 9.74678 70.4446C9.72452 70.4706 9.70968 70.5003 9.70226 70.5337L9.61693 70.9603C9.58354 71.131 9.43513 71.2572 9.26075 71.2572H8.50016C8.33321 71.2572 8.19964 71.1236 8.19964 70.9566V66.894C8.19964 66.727 8.33321 66.5897 8.50016 66.5897H9.40545C9.57611 66.5897 9.71339 66.727 9.71339 66.9014C9.71339 66.9088 9.71339 66.9162 9.71339 66.9237C9.68742 67.3132 9.79501 67.6434 10.0436 67.9069C11.3236 69.2908 12.0842 70.1738 12.3254 70.5522C12.5665 70.9269 12.8893 71.0865 13.2974 71.0234C13.3902 71.0086 13.4792 70.964 13.5497 70.8973L16.9445 67.5025C16.989 67.4579 17.0187 67.406 17.0336 67.3466L17.4417 65.9331C17.5233 65.6437 17.3564 65.3468 17.0707 65.2652C17.0632 65.2652 17.0521 65.2615 17.0447 65.2578L10.7485 63.8145C10.4962 63.7552 10.2477 63.911 10.1883 64.1633C10.1883 64.1707 10.1883 64.1781 10.1846 64.1818L10.0955 64.6382C10.0584 64.8126 9.89148 64.9239 9.7171 64.8905L8.8415 64.7235C8.69309 64.6938 8.59663 64.5454 8.63002 64.397C8.63002 64.397 8.63002 64.397 8.63002 64.3933L10.4888 56.2977C10.5259 56.1419 10.6558 56.0232 10.8153 56.0046L13.8168 55.693C13.9467 55.6781 14.0654 55.7709 14.0803 55.9007C14.0803 55.9193 14.0803 55.9378 14.0803 55.9564C14.0469 56.2495 14.0654 56.5426 14.1433 56.8357C14.1879 56.9952 14.0951 57.1585 13.9356 57.203C13.9282 57.203 13.9207 57.2067 13.9133 57.2067C11.9432 57.5777 11.3904 59.1694 11.1158 60.9614C11.0787 61.2026 11.242 61.4326 11.4831 61.4771L13.201 61.811C13.4347 61.8556 13.661 61.7034 13.7055 61.4697L13.8799 60.5644C13.9022 60.4605 13.8725 60.3492 13.7983 60.2676C13.5942 60.0302 13.2826 59.8855 12.8633 59.8298C12.7038 59.8075 12.5888 59.6629 12.611 59.5033C12.611 59.4922 12.611 59.4848 12.6147 59.4736L12.7557 58.8466C12.7928 58.6908 12.945 58.5943 13.1045 58.624L16.6885 59.3141C16.9297 59.3586 17.0892 59.5961 17.041 59.8372L16.8963 60.583C16.8666 60.7462 16.7108 60.8538 16.5475 60.8241C16.5179 60.8204 16.4919 60.8093 16.4659 60.7982C15.7758 60.4642 15.3195 60.8167 15.0931 61.8593C15.0523 62.0411 15.1673 62.2192 15.3454 62.26L17.5567 62.7646C17.6977 62.798 17.8424 62.7237 17.9017 62.5902C18.8961 60.3381 18.5028 58.5832 16.7219 57.3292C16.5846 57.229 16.5475 57.0398 16.644 56.9025L17.156 56.1493C17.2413 56.0232 17.412 55.9935 17.5419 56.0788L20.4543 58.0563C20.5768 58.138 20.6324 58.2901 20.599 58.4311C20.5397 58.6945 20.024 60.9985 19.0482 65.3506C18.7811 66.5341 18.6438 67.6063 18.6364 68.5599C18.6252 69.4651 18.6141 70.5596 18.5956 71.8397C18.5918 71.9992 18.4583 72.129 18.2987 72.129H17.4306C17.3118 72.129 17.2154 72.04 17.2042 71.925L17.1337 71.2572C17.1152 71.0865 16.9594 70.9641 16.7887 70.9826C16.7182 70.99 16.6551 71.0197 16.6069 71.0679L14.9818 72.6967V72.7004Z" fill="#231F20"/>
<path id="Vector_26" d="M121.323 80.8031L117.813 85.9677C117.754 86.0567 117.65 86.1087 117.542 86.1087H95.9119C95.7672 86.1087 95.6522 85.9937 95.6522 85.849V85.5262C95.6522 85.3926 95.7598 85.2813 95.897 85.2739C96.743 85.2405 97.6445 84.8917 98.6018 84.2239C98.8392 84.057 98.995 83.7935 99.0247 83.5041C99.1175 82.6694 99.1694 81.7715 99.1805 80.8106C99.251 75.9205 99.2139 69.8396 99.0692 62.5713C99.0692 62.4378 99.0358 62.3116 98.9802 62.1929C98.2419 60.6495 97.3329 60.4862 96.179 59.6885C96.0046 59.5661 95.9638 59.3249 96.0863 59.1505C96.1567 59.0504 96.2755 58.9873 96.3979 58.9873H105.377C105.581 58.9873 105.748 59.1505 105.751 59.3546C105.751 59.4808 105.688 59.5995 105.581 59.67C104.219 60.5715 103.488 60.8313 103.458 62.7234C103.358 69.4277 103.403 76.4956 103.592 83.9271C103.596 84.1497 103.751 84.3389 103.97 84.3835C105.243 84.6506 106.553 84.7693 107.892 84.7396C110.96 84.6766 114.422 84.5801 117.045 82.9068C117.739 82.4653 119.041 81.6379 120.959 80.4247C121.082 80.3431 121.249 80.3802 121.33 80.5026C121.39 80.5954 121.386 80.7141 121.323 80.8031Z" fill="#231F20"/>
<path id="Vector_27" d="M44.8784 59.6813C44.9043 59.6516 44.9526 59.6442 44.9822 59.6702C44.9897 59.6776 44.9971 59.685 45.0008 59.6961C48.8186 69.1051 51.8424 76.4995 54.0722 81.8793C54.8699 83.8049 55.2112 85.0366 57.0626 85.6933C57.2963 85.775 57.4188 86.0347 57.3334 86.2684C57.2703 86.4465 57.1034 86.5652 56.9142 86.5652H48.7629C48.5885 86.5652 48.4438 86.4205 48.4475 86.2424C48.4475 86.1126 48.5292 85.9939 48.6479 85.9493C49.7387 85.5301 50.2284 84.8771 50.1171 83.9904C49.9465 82.625 48.7147 80.4175 47.9281 78.7442C47.8688 78.6218 47.7463 78.5438 47.6091 78.5438H38.022C37.8958 78.5438 37.7771 78.6143 37.7214 78.7256C36.7457 80.6586 36.0185 82.4729 35.5473 84.1685C35.3951 84.7064 35.5324 85.1183 35.9591 85.404C36.2893 85.6229 36.6344 85.7824 36.9868 85.8863C37.2428 85.9605 37.3912 86.2276 37.317 86.4836C37.2577 86.6951 37.0647 86.8361 36.8458 86.8324C35.2393 86.8138 33.2618 86.8212 30.9095 86.8546C30.6758 86.8546 30.52 86.7767 30.4421 86.6098C30.3604 86.4317 30.4421 86.2165 30.6276 86.1311C30.635 86.1274 30.6461 86.1237 30.6573 86.12C31.8 85.6896 32.7238 85.1665 33.425 84.5469C33.7775 84.2352 34.0558 83.8494 34.2376 83.419L41.6505 65.8699C41.7358 65.6695 41.7767 65.4543 41.7692 65.2391C41.7544 64.8718 41.5429 64.486 41.1311 64.0742C40.979 63.9183 40.979 63.6697 41.1311 63.5176C41.1533 63.4954 41.1756 63.4768 41.2016 63.462C42.6189 62.5975 43.6763 61.2099 44.8746 59.6813H44.8784Z" fill="#231F20"/>
<path id="Vector_28" d="M139.009 62.1596C139.243 63.4989 139.377 64.2447 139.403 64.4042C139.421 64.5266 139.343 64.6454 139.224 64.6751L138.397 64.894C138.23 64.9385 138.059 64.842 138.015 64.6751L137.863 64.1C137.803 63.8885 137.599 63.7549 137.384 63.7883C136.683 63.8959 135.592 64.0777 134.108 64.3374C132.624 64.5971 131.533 64.7938 130.839 64.9311C130.624 64.9719 130.476 65.1685 130.494 65.3874L130.546 65.981C130.557 66.1517 130.431 66.3001 130.261 66.315L129.407 66.3892C129.285 66.4003 129.174 66.3149 129.151 66.1962C129.122 66.0367 128.992 65.2872 128.758 63.9516C128.524 62.6122 128.394 61.8627 128.368 61.7032C128.35 61.5808 128.424 61.4658 128.543 61.4324L129.37 61.2135C129.537 61.1689 129.708 61.2654 129.752 61.4324L129.905 62.0074C129.96 62.2189 130.168 62.3562 130.387 62.3228C131.084 62.2152 132.175 62.0297 133.659 61.7737C135.147 61.514 136.234 61.3173 136.928 61.1801C137.143 61.1355 137.291 60.9389 137.273 60.72L137.221 60.1264C137.21 59.9557 137.336 59.8073 137.507 59.7925L138.36 59.7183C138.482 59.7071 138.594 59.7925 138.616 59.9149C138.646 60.0744 138.776 60.8202 139.009 62.1596Z" fill="#231F20"/>
<path id="Vector_29" d="M140.245 72.3329C140.401 75.0191 138.345 77.3268 135.659 77.4789L134.724 77.5345C132.038 77.6904 129.73 75.6349 129.578 72.9488L129.504 71.6836C129.348 68.9974 131.403 66.6897 134.09 66.5376L135.025 66.4819C137.711 66.3261 140.018 68.3815 140.171 71.0677L140.245 72.3329Z" fill="#231F20"/>
<path id="Vector_30" d="M46.971 77.2416H38.6862C38.5786 77.2416 38.4932 77.1563 38.4932 77.0487C38.4932 77.0301 38.4932 77.0116 38.5006 76.9893C39.3837 74.088 40.5301 71.1903 41.9437 68.3001C42.1774 67.8178 42.5002 67.3985 42.9083 67.0423C42.9974 66.9644 43.1309 66.9756 43.2051 67.0646C43.2051 67.0646 43.2089 67.0683 43.2126 67.072C43.6615 67.6397 43.9991 68.1851 44.2254 68.7082C45.2532 71.0976 46.2438 73.8431 47.1899 76.9448C47.227 77.0672 47.1565 77.1934 47.0378 77.2305C47.0155 77.2379 46.9932 77.2416 46.971 77.2416Z" fill="#FDB813"/>
<path id="Vector_31" d="M134.891 74.7222C136.979 74.7149 138.668 73.4931 138.662 71.9932C138.657 70.4932 136.96 69.2832 134.872 69.2905C132.784 69.2978 131.096 70.5196 131.101 72.0195C131.106 73.5195 132.803 74.7295 134.891 74.7222Z" fill="#FDB813"/>
<path id="Vector_32" d="M133.21 85.7488L137.058 86.4945C137.269 86.5353 137.473 86.3981 137.514 86.1866L137.611 85.6894C137.651 85.4779 137.859 85.3369 138.071 85.3777L138.865 85.5299C139.02 85.5595 139.124 85.7117 139.095 85.8675L138.408 89.4218C138.371 89.6148 138.182 89.7446 137.989 89.7075L137.173 89.5517C137.021 89.522 136.924 89.3736 136.954 89.2252C136.954 89.2141 136.958 89.2067 136.961 89.1955C137.154 88.5685 136.895 88.1938 136.182 88.0676C134.702 87.8042 132.149 87.2848 128.517 86.5094C128.395 86.4834 128.317 86.3647 128.343 86.2422L128.651 84.6506C128.68 84.4984 128.795 84.376 128.944 84.3352L136.535 82.3131C136.616 82.2872 136.661 82.2018 136.635 82.1239C136.62 82.072 136.575 82.0349 136.524 82.02L131.396 81.0294C131.144 80.9812 130.895 81.137 130.828 81.3856L130.758 81.649C130.65 82.0534 130.235 82.2946 129.83 82.187C129.571 82.1165 129.367 81.9162 129.296 81.6527C129.278 81.5822 129.311 81.3633 129.389 80.9923C129.767 79.1929 129.96 78.1763 129.971 77.9389C129.975 77.8201 130.079 77.7274 130.201 77.7348C130.205 77.7348 130.209 77.7348 130.216 77.7348L131.151 77.8535C131.292 77.8684 131.392 77.9945 131.377 78.1318C131.377 78.1392 131.377 78.1466 131.377 78.154L131.27 78.7106C131.222 78.9629 131.385 79.2077 131.634 79.256L138.056 80.4989C138.375 80.5582 138.683 80.3505 138.746 80.0314L138.831 79.5936C138.854 79.4786 138.965 79.4007 139.084 79.4229L140.059 79.6121C140.197 79.6381 140.289 79.7717 140.263 79.909L139.577 83.4633C139.529 83.7082 139.347 83.9011 139.11 83.9642L133.203 85.5373C133.147 85.5558 133.114 85.6152 133.132 85.6709C133.144 85.708 133.173 85.7339 133.21 85.7451V85.7488Z" fill="#231F20"/>
<path id="Vector_33" d="M13.2937 84.9065C13.1861 83.8046 12.7595 83.3594 12.0137 83.5783C11.7206 83.6673 11.409 83.4966 11.3236 83.2035C11.3199 83.185 11.3125 83.1664 11.3088 83.1479L11.2754 82.955C11.2197 82.6544 11.4127 82.3688 11.7132 82.3094L15.4085 81.6082C15.5198 81.5859 15.6274 81.6601 15.6497 81.7714L15.8129 82.6359C15.8352 82.7546 15.7684 82.8733 15.6571 82.9179L14.9707 83.1924C14.6925 83.3037 14.5292 83.5968 14.5849 83.8936L14.6813 84.4056C14.7221 84.6208 14.9299 84.7618 15.1451 84.721L17.3267 84.3055C17.5048 84.2721 17.6235 84.1051 17.6012 83.927C17.323 81.7603 16.8295 80.2057 14.4105 79.7865C14.2138 79.7531 14.0803 79.5639 14.1137 79.3672C14.1137 79.3672 14.1137 79.3635 14.1137 79.3598L14.2843 78.4731C14.3214 78.2839 14.5069 78.1614 14.6962 78.1985L18.3025 78.8923C18.3618 78.9035 18.4063 78.9517 18.4175 79.011L20.0128 87.4035C20.0425 87.5667 19.9386 87.7262 19.7717 87.7596L18.974 87.908C18.8441 87.934 18.7143 87.8635 18.6661 87.7411L18.3581 86.9694C18.2913 86.8024 18.1132 86.706 17.9389 86.7431C14.8334 87.3923 12.7038 87.8301 11.5425 88.049C11.2197 88.1121 11.1084 88.5054 11.2123 89.2289C11.2272 89.3402 11.1529 89.4441 11.0416 89.4663L10.1067 89.6444C9.95456 89.6741 9.80987 89.5739 9.78018 89.4255L8.28869 81.5785C8.23304 81.2928 8.36661 81.0034 8.6189 80.8587L10.845 79.5713C11.0602 79.4451 11.3385 79.5193 11.4683 79.7382L11.7429 80.2206C11.8616 80.4246 11.8022 80.6843 11.6093 80.8216C9.93972 81.994 10.3256 83.6228 10.6818 85.3554C10.7114 85.4964 10.8487 85.5892 10.9934 85.5632L13.1045 85.1625C13.2232 85.1403 13.3086 85.029 13.2937 84.9102V84.9065Z" fill="#231F20"/>
<path id="Vector_34" d="M84.5365 102.118C84.9594 102.374 85.349 102.612 85.7052 102.827C87.8497 104.118 89.048 105.955 89.2966 108.336C89.6899 112.05 86.7886 114.959 83.6275 116.217C83.4568 116.284 83.2787 116.321 83.1006 116.332C80.8115 116.443 78.8933 116.684 76.8267 116.67C75.8955 116.662 72.0183 116.662 65.2028 116.67C65.021 116.67 64.8725 116.525 64.8688 116.343C64.8688 116.191 64.969 116.057 65.1137 116.02C66.1303 115.727 66.9502 115.07 67.5773 114.05C67.644 113.939 67.6811 113.809 67.6811 113.679C67.722 104.474 67.6589 97.5807 67.4993 92.9912C67.466 92.0525 66.0004 91.3364 65.1842 91.0545C65.1211 91.0322 65.0581 90.9803 64.9987 90.8949C64.943 90.817 64.9171 90.7354 64.9282 90.6575C64.9542 90.472 65.0469 90.3792 65.199 90.3829C69.8442 90.4089 75.1497 90.4126 81.1157 90.3903C83.6943 90.3792 85.0077 90.8838 86.7997 92.4643C88.2541 93.748 89.2002 96.642 88.2726 98.293C87.423 99.8031 86.1764 101.016 84.5402 101.929C84.4845 101.959 84.466 102.025 84.4957 102.081C84.5068 102.1 84.5179 102.114 84.5365 102.122V102.118Z" fill="#231F20"/>
<path id="Vector_35" d="M125.371 104.374C126.116 103.802 126.391 102.994 126.198 101.944C125.831 99.966 125.386 98.5562 126.447 97.0239C126.777 96.5415 127.152 96.0741 127.571 95.6214C127.704 95.4804 127.808 95.3172 127.886 95.1391C128.283 94.2264 128.502 93.0948 128.547 91.748C128.561 91.3844 128.866 91.1024 129.229 91.1173C129.456 91.1247 129.66 91.2508 129.771 91.4438L130.224 92.2155C130.272 92.3008 130.342 92.3713 130.424 92.4195C131.255 92.9241 132.053 92.8091 132.817 92.0708C132.88 92.004 132.988 92.004 133.054 92.0708C133.088 92.1042 133.106 92.1487 133.103 92.1932C133.08 94.078 134.42 94.2895 135.974 93.9593C136.086 93.937 136.197 94.0112 136.219 94.1225C136.23 94.1782 136.219 94.2375 136.182 94.2858C135.733 94.8979 134.969 95.8366 133.886 97.1092C133.496 97.5655 133.24 98.0442 133.118 98.545C132.928 99.3464 132.765 99.8473 132.631 100.048C131.938 101.094 131.311 101.914 130.046 102.426C128.925 102.882 127.452 103.309 126.84 104.437C126.784 104.533 126.821 104.659 126.918 104.715C126.959 104.737 127.007 104.745 127.055 104.737C128.038 104.57 128.996 104.236 129.919 103.739C130.817 103.264 131.659 102.415 132.335 101.877C132.491 101.751 132.691 101.688 132.895 101.695C133.47 101.725 134.108 101.81 134.813 101.947C135.128 102.014 135.347 102.125 135.466 102.281C135.678 102.567 135.629 102.99 135.351 103.283C133.7 105.042 132.056 104.76 129.838 104.893C129.738 104.901 129.663 104.99 129.671 105.09C129.671 105.116 129.682 105.142 129.693 105.164L130.149 105.954C130.212 106.062 130.216 106.195 130.161 106.307C129.871 106.897 129.333 107.127 128.732 106.592C128.242 106.158 127.196 105.424 126.669 105.939C126.591 106.014 126.588 106.14 126.662 106.218C126.673 106.233 126.688 106.244 126.703 106.251C128.765 107.487 130.42 108.496 131.092 110.967C131.162 111.23 131.006 111.505 130.743 111.575C130.728 111.579 130.713 111.583 130.698 111.586C129.649 111.768 128.524 111.571 127.333 110.993C127.148 110.907 126.992 110.77 126.877 110.603L124.714 107.431C124.658 107.353 124.551 107.334 124.473 107.39C124.443 107.412 124.421 107.442 124.406 107.475L124.054 108.507C123.968 108.755 123.701 108.889 123.449 108.804C123.412 108.793 123.375 108.774 123.341 108.752C122.733 108.351 122.295 107.887 122.032 107.36C121.957 107.219 121.827 107.116 121.675 107.078C121.052 106.919 120.547 106.785 120.165 106.674C119.809 106.57 119.59 106.221 119.672 105.891C119.69 105.813 119.727 105.743 119.776 105.68C119.876 105.554 120.099 105.479 120.447 105.461C120.822 105.442 121.423 105.531 122.25 105.728C122.321 105.746 122.391 105.702 122.406 105.631C122.414 105.605 122.41 105.576 122.403 105.55C121.79 103.928 121.364 100.504 122.67 99.0756C123.015 98.6972 123.612 98.686 124.002 99.0459C124.028 99.0682 124.05 99.0904 124.072 99.1164C124.64 99.7545 125.107 100.66 125.475 101.832C125.527 101.992 125.538 102.162 125.504 102.329L125.144 104.236C125.13 104.314 125.178 104.389 125.256 104.403C125.296 104.411 125.337 104.403 125.371 104.374Z" fill="#231F20"/>
<path id="Vector_36" d="M72.382 91.9004C72.382 91.7705 72.4858 91.6666 72.6157 91.6629L79.6279 91.6406C82.0284 91.6332 83.9837 93.466 83.9911 95.7404L83.9985 97.4693C84.0059 99.74 82.0655 101.591 79.665 101.599L72.6528 101.621C72.5229 101.621 72.4154 101.517 72.4116 101.387C72.4116 101.387 72.4116 101.387 72.4116 101.384L72.382 91.9004Z" fill="#FDB813"/>
<path id="Vector_37" d="M25.3703 105.268L25.0067 103.361C24.9733 103.194 24.9845 103.023 25.0364 102.864C25.4037 101.691 25.8675 100.786 26.4314 100.144C26.7839 99.7474 27.3812 99.6991 27.7634 100.037C27.7894 100.059 27.8116 100.081 27.8339 100.104C29.1436 101.528 28.7206 104.953 28.1121 106.578C28.0862 106.648 28.1233 106.722 28.1901 106.748C28.2123 106.756 28.2383 106.76 28.2643 106.752C29.0916 106.556 29.6927 106.466 30.0674 106.485C30.4162 106.504 30.6388 106.574 30.7389 106.7C30.9504 106.967 30.8836 107.364 30.5868 107.583C30.5163 107.635 30.4384 107.672 30.3531 107.698C29.9709 107.81 29.4664 107.943 28.843 108.103C28.6909 108.14 28.5611 108.244 28.4869 108.385C28.2234 108.915 27.7856 109.379 27.1772 109.78C26.9546 109.924 26.6578 109.861 26.5168 109.642C26.4945 109.609 26.476 109.572 26.4648 109.535L26.1124 108.503C26.0827 108.411 25.9825 108.362 25.8897 108.392C25.8564 108.403 25.823 108.425 25.8044 108.459L23.6451 111.635C23.5301 111.805 23.3742 111.939 23.1887 112.028C21.9978 112.607 20.8773 112.807 19.8273 112.625C19.5565 112.581 19.3747 112.321 19.4192 112.054C19.4192 112.039 19.4266 112.024 19.4303 112.006C20.0982 109.535 21.7529 108.522 23.8121 107.283C23.9048 107.227 23.9345 107.105 23.8788 107.012C23.8714 106.997 23.8566 106.982 23.8454 106.971C23.3186 106.455 22.2723 107.194 21.7826 107.628C21.1852 108.162 20.6473 107.936 20.3542 107.346C20.2985 107.234 20.3022 107.101 20.3653 106.993L20.8216 106.203C20.8699 106.114 20.8402 106.006 20.7512 105.954C20.7289 105.94 20.7029 105.932 20.677 105.932C18.4583 105.799 16.8147 106.084 15.1599 104.329C14.8817 104.036 14.8334 103.613 15.0449 103.328C15.1636 103.172 15.3825 103.061 15.6979 102.994C16.3991 102.853 17.0373 102.767 17.6123 102.738C17.8164 102.727 18.0168 102.793 18.1763 102.92C18.8515 103.454 19.6938 104.303 20.5916 104.778C21.5192 105.272 22.4764 105.602 23.4596 105.769C23.5709 105.791 23.6785 105.717 23.697 105.606C23.7045 105.557 23.697 105.509 23.6748 105.468C23.0589 104.344 21.5859 103.918 20.4655 103.465C19.2003 102.953 18.5696 102.133 17.8758 101.09C17.7422 100.89 17.579 100.389 17.386 99.5878C17.2636 99.0869 17.0076 98.6083 16.618 98.152C15.5309 96.8831 14.7629 95.9444 14.314 95.3322C14.2472 95.2395 14.2658 95.1096 14.3585 95.0429C14.4068 95.0095 14.4661 94.9946 14.5218 95.0057C16.0763 95.3322 17.4157 95.1208 17.3934 93.236C17.3934 93.1432 17.4677 93.069 17.5604 93.069C17.6049 93.069 17.6457 93.0839 17.6754 93.1136C18.4434 93.8482 19.2411 93.9632 20.0722 93.4586C20.1538 93.4104 20.2243 93.3399 20.2725 93.2545L20.7215 92.4791C20.9033 92.1637 21.304 92.0599 21.6193 92.2417C21.816 92.353 21.9384 92.5607 21.9458 92.7834C21.9941 94.1301 22.2167 95.2617 22.6137 96.1745C22.6916 96.3525 22.7955 96.5158 22.929 96.6568C23.3483 97.1057 23.723 97.5732 24.0569 98.0555C25.118 99.5878 24.6765 100.998 24.3129 102.975C24.12 104.025 24.3983 104.834 25.144 105.405C25.2034 105.454 25.2924 105.442 25.3406 105.383C25.3666 105.35 25.3777 105.309 25.3703 105.268Z" fill="#231F20"/>
<path id="Vector_38" d="M131.471 95.8402C131.968 94.9468 132.142 94.0949 131.859 93.9374C131.576 93.78 130.944 94.3766 130.447 95.27C129.949 96.1634 129.776 97.0153 130.058 97.1728C130.341 97.3302 130.974 96.7336 131.471 95.8402Z" fill="#FDB813"/>
<path id="Vector_39" d="M129.689 94.1675C129.726 94.1861 129.741 94.2343 129.723 94.2714L129.441 94.8428C128.955 95.826 128.458 96.5717 128.328 96.5086L128.294 96.4901C128.168 96.4196 128.461 95.5737 128.944 94.5942L129.226 94.0228C129.244 93.9857 129.292 93.9709 129.329 93.9894L129.689 94.1675Z" fill="#FDB813"/>
<path id="Vector_40" d="M20.4603 98.3074C20.7544 98.149 20.5919 97.2762 20.0975 96.3579C19.603 95.4396 18.9638 94.8235 18.6697 94.9818C18.3756 95.1402 18.538 96.013 19.0325 96.9313C19.527 97.8496 20.1662 98.4657 20.4603 98.3074Z" fill="#FDB813"/>
<path id="Vector_41" d="M20.8213 95.2805C20.8065 95.2545 20.8213 95.2211 20.8473 95.2063L20.8658 95.1988C21.0922 95.0913 21.5151 95.4994 21.8045 96.1115L21.8713 96.2451C22.1607 96.8573 22.2126 97.4435 21.9863 97.5511L21.9678 97.5622C21.9381 97.5734 21.9084 97.5622 21.8936 97.5326L20.825 95.2805H20.8213Z" fill="#FDB813"/>
<path id="Vector_42" d="M132.633 97.4428C133.252 96.5626 133.585 95.7307 133.377 95.5846C133.169 95.4385 132.499 96.0336 131.88 96.9137C131.262 97.7938 130.929 98.6258 131.137 98.7719C131.345 98.918 132.015 98.3229 132.633 97.4428Z" fill="#FDB813"/>
<path id="Vector_43" d="M19.414 99.8415C19.6188 99.6981 19.2684 98.8444 18.6314 97.9346C17.9944 97.0249 17.3119 96.4036 17.1072 96.547C16.9024 96.6904 17.2528 97.5441 17.8898 98.4539C18.5268 99.3636 19.2092 99.9849 19.414 99.8415Z" fill="#FDB813"/>
<path id="Vector_44" d="M129.035 100.166C129.174 99.7739 129.158 99.4106 129 99.3545C128.842 99.2984 128.601 99.5708 128.462 99.9629C128.323 100.355 128.339 100.718 128.497 100.774C128.655 100.83 128.896 100.558 129.035 100.166Z" fill="#FDB813"/>
<path id="Vector_45" d="M21.9473 101.841C22.09 101.797 22.1069 101.445 21.9849 101.056C21.863 100.667 21.6484 100.387 21.5057 100.432C21.363 100.477 21.3461 100.829 21.468 101.218C21.59 101.607 21.8045 101.886 21.9473 101.841Z" fill="#FDB813"/>
<path id="Vector_46" d="M72.3522 103.576C72.3522 103.283 72.586 103.046 72.8791 103.042L78.7041 102.979C81.8948 102.945 84.5068 105.368 84.5365 108.392L84.5513 109.72C84.581 112.744 82.021 115.219 78.8302 115.252L73.0052 115.315C72.7121 115.315 72.4747 115.081 72.471 114.788L72.3522 103.576Z" fill="#FDB813"/>
<path id="Vector_47" d="M128.796 110.247C128.967 110.142 128.9 109.721 128.646 109.307C128.393 108.893 128.048 108.642 127.877 108.747C127.706 108.852 127.773 109.273 128.026 109.687C128.28 110.101 128.625 110.351 128.796 110.247Z" fill="#FDB813"/>
<path id="Vector_48" d="M22.494 110.778C22.7572 110.417 22.8296 110.021 22.6557 109.895C22.4819 109.768 22.1276 109.958 21.8644 110.319C21.6012 110.68 21.5288 111.075 21.7026 111.202C21.8765 111.328 22.2308 111.139 22.494 110.778Z" fill="#FDB813"/>
<path id="Vector_49" d="M113.068 120.068C113.409 119.949 113.591 119.575 113.476 119.233C113.461 119.189 113.439 119.144 113.413 119.103C113.275 118.885 112.971 118.469 112.496 117.857C112.07 117.304 111.606 117.3 111.105 117.849C111.023 117.938 110.89 117.946 110.801 117.864C110.801 117.864 110.797 117.861 110.793 117.857L110.1 117.163C110.04 117.104 110.044 117.011 110.1 116.952C110.1 116.952 110.107 116.944 110.111 116.944L113.743 113.865C113.828 113.794 113.954 113.798 114.032 113.876L114.826 114.673C114.886 114.729 114.886 114.826 114.826 114.885C114.823 114.889 114.819 114.892 114.812 114.896C114.481 115.152 114.259 115.371 114.151 115.545C114.073 115.664 114.081 115.816 114.162 115.931C115.131 117.267 116.251 118.432 117.271 119.92C117.397 120.105 117.817 120.539 118.529 121.222C118.648 121.337 118.833 121.341 118.959 121.237L119.334 120.918C119.49 120.784 119.727 120.803 119.861 120.959L120.343 121.526C120.458 121.663 120.44 121.868 120.303 121.983L116.741 125.003C116.685 125.051 116.6 125.043 116.552 124.988L115.687 123.967C115.646 123.923 115.654 123.856 115.698 123.815C115.706 123.808 115.713 123.804 115.72 123.801C116.377 123.467 116.533 123.081 116.188 122.639C116.036 122.439 115.594 121.842 114.871 120.844C114.804 120.751 114.674 120.729 114.581 120.795C114.578 120.795 114.57 120.803 114.567 120.806L111.955 123.021C111.866 123.096 111.854 123.229 111.929 123.318L113.561 125.24C113.591 125.277 113.635 125.299 113.68 125.307C113.884 125.337 114.095 125.222 114.307 124.966C114.44 124.806 114.674 124.784 114.834 124.917C114.849 124.932 114.867 124.947 114.878 124.962L115.394 125.567C115.498 125.685 115.483 125.867 115.364 125.971L111.91 128.898C111.769 129.017 111.565 128.998 111.446 128.861L110.853 128.164C110.749 128.038 110.764 127.852 110.886 127.744L111.432 127.284C111.576 127.162 111.595 126.947 111.472 126.802L107.098 121.645C106.957 121.478 106.712 121.456 106.545 121.597C106.534 121.604 106.527 121.615 106.516 121.623L106.185 121.953C106.107 122.031 105.981 122.031 105.903 121.953C105.903 121.953 105.896 121.945 105.896 121.942L105.25 121.177C105.102 121.003 105.124 120.743 105.295 120.595C105.339 120.558 105.391 120.528 105.451 120.513C105.655 120.454 105.807 120.383 105.914 120.298C106.69 119.701 107.614 118.899 108.69 117.898C108.827 117.771 109.038 117.779 109.168 117.912C109.172 117.916 109.176 117.924 109.179 117.927L109.71 118.554C109.844 118.714 109.825 118.951 109.669 119.085C109.665 119.085 109.662 119.092 109.654 119.096C109.15 119.486 109.046 119.842 109.346 120.172C109.677 120.532 110.025 120.973 110.4 121.489C110.541 121.686 110.812 121.73 111.005 121.589C111.038 121.563 111.072 121.534 111.098 121.5C111.632 120.814 112.289 120.335 113.068 120.068Z" fill="#231F20"/>
<path id="Vector_50" d="M34.156 115.156C34.0595 115.067 34.0484 114.918 34.1375 114.822C34.1375 114.822 34.1412 114.814 34.1449 114.814L34.7162 114.243C34.8684 114.091 35.1095 114.087 35.2691 114.232L38.3448 117.022C38.5377 117.196 38.5526 117.493 38.3782 117.69L37.9664 118.142C37.8513 118.268 37.6547 118.28 37.5248 118.165C37.5137 118.153 37.4989 118.142 37.4915 118.127C37.139 117.686 36.8422 117.589 36.5973 117.845C34.7719 119.745 33.3398 121.274 32.2972 122.428C32.0486 122.702 32.0672 123.125 32.3343 123.377C33.5141 124.494 34.898 124.683 36.4823 123.949C36.6084 123.889 36.7568 123.897 36.8756 123.975C37.0277 124.075 37.1241 124.253 37.1612 124.502C37.1761 124.613 37.28 124.691 37.395 124.672C37.4655 124.661 37.5286 124.613 37.5545 124.55C38.1815 123.099 39.2389 122.06 40.7341 121.43C41.8806 120.947 43.053 120.947 44.2588 121.43C45.6946 122.008 46.7558 122.743 47.4459 123.633C49.5718 126.368 48.0506 130.301 45.1159 131.696C43.7171 132.363 42.2553 132.311 40.7379 131.543C38.3151 130.319 36.742 128.375 37.2392 125.603C37.2614 125.485 37.1835 125.37 37.0648 125.347C37.0128 125.336 36.9572 125.347 36.9127 125.373L34.4677 126.787C34.1634 126.961 33.785 126.921 33.5253 126.687L28.3013 121.949C28.1158 121.782 28.101 121.496 28.268 121.311L28.7577 120.769C28.8505 120.665 29.01 120.658 29.1139 120.751C29.125 120.762 29.1361 120.773 29.1473 120.788C29.2771 120.962 29.4849 121.099 29.7706 121.207C29.893 121.251 30.0303 121.222 30.1267 121.136C31.0432 120.316 31.5069 119.905 31.5106 119.901C32.4642 118.725 33.4882 117.549 34.579 116.38C34.809 116.135 34.7979 115.749 34.553 115.523C34.553 115.523 34.5493 115.519 34.5456 115.516L34.1523 115.156H34.156Z" fill="#231F20"/>
<path id="Vector_51" d="M108.582 130.056C108.552 130.264 108.475 130.46 108.352 130.642C105.477 134.916 98.9172 133.328 98.4274 128.153C98.1009 124.691 100.112 123.136 103.176 122.42C103.291 122.394 103.388 122.32 103.447 122.22L103.815 121.582C103.952 121.344 104.256 121.263 104.494 121.404C104.531 121.426 104.568 121.452 104.597 121.482L106.942 123.826C107.054 123.938 107.054 124.116 106.942 124.223L106.341 124.825C106.211 124.958 106.004 124.98 105.848 124.876C105.102 124.383 104.56 124.105 104.215 124.049C102.416 123.756 101.266 124.476 100.765 126.208C100.739 126.301 100.724 126.398 100.728 126.498C100.769 128.568 101.908 129.674 103.562 130.683C103.844 130.857 104.371 130.943 105.143 130.939C105.265 130.939 105.388 130.913 105.503 130.861C107.061 130.189 107.751 128.802 108 127.177C108.026 127.002 108.174 126.873 108.352 126.873H109.131C109.298 126.873 109.436 127.01 109.436 127.177C109.436 127.195 109.436 127.214 109.432 127.229C109.28 128.093 109.072 128.972 108.805 129.859C108.786 129.922 108.757 129.959 108.723 129.967C108.705 129.974 108.671 129.985 108.63 129.996C108.604 130.004 108.586 130.026 108.582 130.052V130.056Z" fill="#231F20"/>
<path id="Vector_52" d="M45.1048 128.078C44.7894 128.572 44.4667 128.969 44.1364 129.276C42.8156 130.516 40.9939 130.512 39.8846 128.887C39.803 128.764 39.7473 128.623 39.725 128.479C39.5061 127.036 39.725 126.201 40.4448 125.08C41.1646 123.963 41.8324 123.418 43.2386 123.017C43.3796 122.977 43.528 122.969 43.6727 122.995C45.6131 123.329 46.3737 124.987 45.7949 126.702C45.6502 127.128 45.4202 127.588 45.1048 128.078Z" fill="#FDB813"/>
<path id="Vector_53" d="M53.538 132.378C53.538 132.449 53.5974 132.508 53.6679 132.508C53.7272 132.508 53.7792 132.467 53.794 132.408C54.1613 131.254 54.588 130.126 55.0666 129.021C55.2521 128.598 55.0777 128.316 54.5435 128.171C54.3283 128.112 54.2021 127.893 54.2615 127.681C54.2615 127.67 54.2689 127.659 54.2726 127.644L54.5286 126.973C54.5991 126.783 54.8106 126.691 54.9961 126.761L58.4058 128.052C58.5764 128.119 58.6618 128.312 58.595 128.483C58.595 128.494 58.5876 128.501 58.5838 128.512C58.4169 128.85 58.339 129.102 58.3538 129.269C58.3612 129.355 58.4354 129.414 58.5171 129.407C58.543 129.407 58.5653 129.395 58.5876 129.384C60.6875 128.041 62.4647 128.564 64.4979 129.692C64.5906 129.744 64.7019 129.77 64.8095 129.763L65.9782 129.67C66.1415 129.659 66.2825 129.781 66.2973 129.945C66.2973 129.952 66.2973 129.959 66.2973 129.967V133.228C66.2973 133.343 66.212 133.436 66.1007 133.443L65.1063 133.521C64.9542 133.536 64.8169 133.436 64.7835 133.287C64.5053 132.141 63.9302 131.254 63.062 130.635C62.9618 130.564 62.8468 130.512 62.7281 130.479C59.7043 129.677 58.4762 133.636 59.0179 135.818C59.5114 137.806 62.9322 138.986 63.1474 135.936C63.1548 135.821 63.0843 135.714 62.9767 135.673L62.0454 135.321C61.9267 135.276 61.8673 135.142 61.9119 135.024C61.9156 135.013 61.923 134.998 61.9304 134.987C62.0603 134.768 62.1456 134.504 62.1864 134.204C62.205 134.074 62.3237 133.981 62.4536 134C62.461 134 62.4647 134 62.4721 134L66.9466 135.027C67.0839 135.061 67.1692 135.198 67.1395 135.332L66.9243 136.274C66.8946 136.397 66.7722 136.474 66.6498 136.445L66.1897 136.337C65.9077 136.274 65.6258 136.448 65.559 136.734L64.8207 139.947C64.791 140.07 64.6834 140.155 64.5609 140.159C63.7261 140.17 63.2216 139.847 63.0435 139.187C63.0138 139.068 62.8914 138.997 62.7689 139.027C62.7652 139.027 62.7578 139.027 62.7541 139.031C61.0326 139.632 58.684 139.175 57.5079 137.907C55.2632 135.491 55.7233 132.174 57.7491 129.833C57.8529 129.714 57.8418 129.533 57.7231 129.429C57.6934 129.403 57.66 129.384 57.6229 129.373C57.0515 129.18 56.7696 129.518 56.5618 130.041C56.0164 131.425 55.0518 133.822 53.6604 137.231C53.6196 137.335 53.5046 137.383 53.4007 137.346L51.9278 136.786C51.7126 136.704 51.5642 136.504 51.5456 136.274L50.9223 128.434C50.9186 128.375 50.8667 128.331 50.8073 128.334C50.7665 128.334 50.7294 128.364 50.7146 128.405L48.7741 133.517C48.7296 133.636 48.7667 133.773 48.8669 133.855C49.0598 134.011 49.2565 134.115 49.4531 134.167C49.6089 134.208 49.7054 134.367 49.6646 134.523C49.6646 134.534 49.6572 134.545 49.6535 134.553L49.327 135.421C49.275 135.551 49.134 135.614 49.0042 135.565L45.4164 134.204C45.2532 134.141 45.1678 133.959 45.2309 133.796C45.2309 133.796 45.2309 133.796 45.2309 133.792L45.576 132.879C45.6131 132.779 45.7207 132.716 45.832 132.731C46.0991 132.768 46.2698 132.809 46.3477 132.85C46.6148 132.991 46.9487 132.887 47.086 132.62C47.0934 132.605 47.1008 132.59 47.1083 132.575C48.3326 129.559 49.134 127.544 49.5088 126.535C49.583 126.342 49.4865 126.13 49.2973 126.056L48.7853 125.86C48.6443 125.808 48.5701 125.648 48.6257 125.507L48.9559 124.628C49.0042 124.509 49.1377 124.45 49.2602 124.494L52.5734 125.752C52.8479 125.856 53.0408 126.112 53.0631 126.405L53.538 132.378Z" fill="#231F20"/>
<path id="Vector_54" d="M91.43 136.89C91.8121 136.749 91.9939 136.27 91.9717 135.45C91.968 135.291 92.0422 132.56 92.198 127.258C92.2017 127.125 92.287 127.01 92.4132 126.965L94.1681 126.372C94.3165 126.323 94.4798 126.372 94.5799 126.49C97.1622 129.547 99.1175 131.77 100.442 133.161C100.579 133.302 100.869 133.387 101.314 133.421C101.459 133.432 101.588 133.514 101.666 133.636C101.815 133.877 101.915 134.159 101.971 134.489C101.993 134.623 101.919 134.753 101.789 134.797L97.5406 136.233C97.4182 136.278 97.2809 136.211 97.2364 136.085L96.9767 135.317C96.947 135.231 96.973 135.139 97.0398 135.079L97.652 134.56C97.7744 134.456 97.7929 134.271 97.6891 134.148L96.9396 133.269C96.8394 133.154 96.6799 133.106 96.5352 133.154L94.0531 133.996C93.8898 134.052 93.7822 134.204 93.7822 134.371V135.584C93.7822 135.732 93.8973 135.855 94.0457 135.87C94.2757 135.888 94.4723 135.862 94.6393 135.792C94.8211 135.717 95.0289 135.803 95.1068 135.985C95.1068 135.992 95.1142 135.999 95.1142 136.007L95.3702 136.756C95.437 136.953 95.3294 137.164 95.1327 137.231L91.9346 138.315C91.7713 138.37 91.5895 138.281 91.5339 138.118L91.2482 137.279C91.1963 137.124 91.2779 136.953 91.43 136.897V136.89Z" fill="#231F20"/>
<path id="Vector_55" d="M79.6873 134.853C79.6428 134.872 79.628 134.924 79.6502 134.968C79.6614 134.994 79.6836 135.009 79.7096 135.016C80.1845 135.113 80.6297 135.313 81.049 135.621C82.099 136.393 82.0915 138.144 81.3347 139.035C80.5629 139.947 79.4573 140.43 78.0215 140.485C77.5095 140.504 75.6062 140.578 72.3078 140.712C72.1037 140.723 71.9294 140.563 71.9182 140.355C71.9182 140.355 71.9182 140.355 71.9182 140.352L71.896 139.599C71.8886 139.406 72.0258 139.235 72.215 139.198L72.8606 139.075C73.0202 139.046 73.1352 138.905 73.1278 138.741L72.9163 132.301C72.9089 132.045 72.7233 131.826 72.4711 131.777L71.8366 131.655C71.6956 131.629 71.5917 131.507 71.588 131.362L71.5583 130.501C71.5509 130.338 71.6808 130.201 71.8477 130.193C71.8477 130.193 71.8477 130.193 71.8515 130.193C74.8159 130.112 76.5968 130.056 77.1867 130.026C78.3554 129.967 79.2273 130.082 79.7986 130.368C79.8988 130.42 80.025 130.382 80.0806 130.279C80.0806 130.275 80.0843 130.271 80.0843 130.267C80.1474 130.13 80.1993 130.034 80.2327 129.978C80.2661 129.926 80.3181 129.889 80.3774 129.878L88.499 128.264C88.6029 128.242 88.7105 128.286 88.7699 128.379L90.3244 130.857C90.4543 131.065 90.3912 131.336 90.1834 131.466L89.6046 131.829C89.3857 131.967 89.0963 131.904 88.9554 131.688C88.6734 131.258 88.2467 130.876 87.6754 130.546C87.5084 130.449 87.3192 130.394 87.1262 130.39C86.2395 130.364 85.3491 130.497 84.4512 130.798C84.3288 130.839 84.2546 130.965 84.2768 131.095L84.6404 133.009C84.6775 133.187 84.8445 133.31 85.0226 133.284C85.9613 133.158 86.3582 132.798 86.221 132.2C86.1468 131.874 86.3174 131.544 86.6254 131.421L86.8072 131.351C87.0669 131.247 87.3637 131.373 87.4676 131.633C87.4787 131.662 87.4898 131.696 87.4973 131.729L88.2059 135.451C88.2319 135.595 88.1391 135.733 87.9944 135.759L87.2227 135.907C87.1114 135.925 87.0038 135.866 86.963 135.762L86.618 134.894C86.5586 134.749 86.4213 134.649 86.2655 134.634C85.9427 134.608 85.6199 134.642 85.2971 134.738C85.1302 134.786 85.0263 134.953 85.0597 135.124L85.4604 137.239C85.5123 137.502 85.7498 137.68 86.0169 137.658C88.3914 137.443 89.7642 136.348 90.1315 134.371C90.1575 134.219 90.3059 134.119 90.458 134.148L91.3484 134.319C91.5302 134.356 91.6489 134.534 91.6156 134.716L90.9551 138.129C90.918 138.315 90.7733 138.46 90.5878 138.497L82.3995 140.051C82.2399 140.081 82.0841 139.988 82.0322 139.832C81.8021 139.131 81.9951 138.712 82.6073 138.567C82.8558 138.511 83.0154 138.267 82.9671 138.014L81.7576 131.637C81.7168 131.425 81.5536 131.254 81.3421 131.206L81.2234 131.18C81.1158 131.158 81.0119 131.228 80.9896 131.332C80.9822 131.369 80.9859 131.406 81.0007 131.44C81.6055 132.98 81.164 134.115 79.6836 134.853H79.6873Z" fill="#231F20"/>
<path id="Vector_56" d="M93.8266 132.349L93.8154 129.763C93.8154 129.681 93.8785 129.618 93.9601 129.618C94.0046 129.618 94.0492 129.64 94.0751 129.674L95.6594 131.718C95.7076 131.781 95.6928 131.874 95.6297 131.922C95.6186 131.93 95.6074 131.937 95.5926 131.941L94.0195 132.486C93.9453 132.512 93.86 132.475 93.834 132.397C93.8266 132.382 93.8266 132.364 93.8266 132.349Z" fill="#FDB813"/>
<path id="Vector_57" d="M75.517 132.055C75.5133 131.933 75.6061 131.833 75.7285 131.825L77.1087 131.777C78.0103 131.747 78.7597 132.256 78.782 132.916V133.02C78.8079 133.68 78.0993 134.241 77.1977 134.274L75.8175 134.322C75.6951 134.326 75.5912 134.23 75.5875 134.107L75.517 132.052V132.055Z" fill="#FDB813"/>
<path id="Vector_58" d="M75.6024 136.129C75.595 136.007 75.6914 135.899 75.8139 135.892L77.5168 135.788C78.3702 135.736 79.0974 136.337 79.1493 137.131L79.1567 137.279C79.205 138.073 78.5557 138.763 77.7023 138.815L75.9994 138.919C75.8732 138.927 75.7656 138.834 75.7582 138.708L75.6024 136.129Z" fill="#FDB813"/>
</g>
</svg>
