<svg width="31" height="31" viewBox="0 0 31 31" fill="none" xmlns="http://www.w3.org/2000/svg">
<g id="Layer_1" clip-path="url(#clip0_1_95)">
<path id="Vector" fill-rule="evenodd" clip-rule="evenodd" d="M11.9114 26.1751C12.0906 25.8444 12.0596 25.4414 11.8322 25.1417C11.6049 24.8421 11.226 24.7043 10.8574 24.7835C10.6094 24.8455 10.3993 25.004 10.2718 25.2279L9.30392 26.8468C9.10759 27.1775 9.12481 27.5908 9.3487 27.9008C9.5726 28.2108 9.96183 28.3555 10.3373 28.2728C10.5853 28.2108 10.7954 28.0524 10.9229 27.8285L11.8804 26.2302L11.9114 26.1751ZM17.4193 5.30117C17.5157 5.19783 17.6501 5.13583 17.7913 5.13583C17.9325 5.13583 18.0703 5.1875 18.1702 5.29084C18.2701 5.39073 18.3252 5.52851 18.3217 5.66974C18.3217 5.81096 18.2597 5.9453 18.153 6.04175L15.1045 9.09017C15.0046 9.19006 14.8738 9.24517 14.736 9.24517C14.5982 9.24517 14.4639 9.19006 14.3674 9.09017L12.8484 7.56768C12.745 7.47123 12.6899 7.3369 12.6865 7.19567C12.6865 7.05444 12.7416 6.92011 12.8415 6.82021C12.9414 6.72032 13.0757 6.66521 13.2169 6.66866C13.3582 6.66866 13.489 6.72721 13.5855 6.83055L14.7394 7.98792L17.4193 5.30806V5.30117ZM15.4387 14.2398C16.6684 13.5199 17.7706 12.5967 18.6972 11.5151C18.7248 11.4703 18.7592 11.4325 18.7971 11.398C20.664 9.20039 21.7181 6.43098 21.7835 3.55134C19.5136 3.324 17.3469 2.5042 15.4972 1.17116C13.6475 2.50765 11.4809 3.32745 9.21092 3.55479C9.26259 5.66629 9.84127 7.72613 10.8987 9.55518C11.2983 10.2406 11.7564 10.8917 12.2697 11.5013C12.342 11.5496 12.4006 11.6185 12.4385 11.6977C12.8966 12.2213 13.396 12.7138 13.9265 13.1616C14.0746 13.1995 14.1986 13.2994 14.2641 13.4372C14.6326 13.7334 15.0253 14.0055 15.4352 14.2466L15.4387 14.2398ZM22.8375 3.06911C22.8754 6.11064 21.8903 9.07983 20.044 11.4979C21.2668 11.8492 22.5413 12.2247 24.0156 11.7735L23.7331 10.8641C23.6918 10.7332 23.7056 10.5885 23.771 10.468C23.8365 10.3474 23.9467 10.2544 24.0776 10.2165L28.4625 8.86627C28.7449 8.81461 29.017 9.00061 29.0653 9.28306L30.9908 19.6098C31.0459 19.8716 30.8909 20.1334 30.636 20.2126L27.4704 21.1908C27.1949 21.2735 26.9055 21.122 26.8194 20.8464L26.6748 20.3814L24.8733 20.9222C25.135 21.3906 25.1729 21.9555 24.9766 22.455C24.7803 22.9545 24.3704 23.3437 23.8571 23.509C24.112 24.1394 24.0259 24.8558 23.6229 25.407C23.2233 25.9547 22.5654 26.2578 21.8868 26.2061C21.9661 26.7056 21.8352 27.2119 21.5217 27.608C21.2083 28.0042 20.7433 28.2487 20.2403 28.2866C20.3334 28.9342 20.0509 29.5783 19.5136 29.9469C18.9762 30.312 18.1667 30.4153 17.1334 29.9193L16.7958 29.7574L16.5444 30.1811C16.2068 30.7219 15.5971 31.0285 14.9599 30.9768C14.3261 30.9251 13.7715 30.5221 13.5269 29.9297C12.6245 30.3223 11.5739 29.9228 11.1571 29.0306C10.5543 29.4026 9.79649 29.4233 9.17303 29.0857C8.54957 28.7482 8.15345 28.104 8.13278 27.3945C7.70566 27.4358 7.27509 27.3394 6.90308 27.1258C6.07983 26.585 5.83527 25.4828 6.3554 24.6457L6.98575 23.5917C6.67574 23.1611 6.3864 22.7168 6.12117 22.2587C5.70782 21.4492 5.11192 20.7499 4.37823 20.2092L4.18533 20.8326C4.09922 21.1082 3.80988 21.2597 3.53431 21.1771L0.368779 20.1988C0.110438 20.1196 -0.0445664 19.8578 0.0105463 19.596L1.93605 9.26929C1.9636 9.12461 2.05316 8.99717 2.17716 8.91794C2.30461 8.84216 2.45617 8.82149 2.5974 8.86283L6.92375 10.1993C7.05464 10.2406 7.16486 10.3302 7.23031 10.4508C7.29576 10.5748 7.30953 10.716 7.2682 10.8469L7.07531 11.4738C8.59435 11.9767 9.72071 11.6908 10.978 11.4945C9.11792 9.07639 8.12589 6.10031 8.16378 3.05188C8.16378 2.77632 8.37734 2.54898 8.65291 2.53176C9.83438 2.45942 10.9952 2.21486 12.1043 1.80152C13.2066 1.38817 14.2434 0.812931 15.1803 0.0964664C15.3663 -0.051649 15.6316 -0.0550935 15.821 0.0930218C16.7579 0.812931 17.7947 1.39161 18.9004 1.80152C19.9958 2.21142 21.1497 2.45942 22.3174 2.53176C22.4552 2.53176 22.5895 2.58687 22.686 2.68332C22.7859 2.78321 22.841 2.9141 22.841 3.05188L22.8375 3.06911ZM19.3172 12.3763C20.8879 12.8068 22.3897 13.3717 24.3221 12.7689L26.3682 19.3859L23.9777 20.1024L16.5409 15.8897C16.3825 15.8001 16.1896 15.8001 16.0311 15.8897C15.8244 16.0068 15.4077 16.2479 15.0081 16.4753C12.4763 17.9323 10.8919 18.8417 9.32459 17.6223C10.9607 16.6923 12.4867 15.5797 13.8679 14.3018C14.3812 14.6841 14.9289 15.0251 15.5007 15.3145C15.6006 15.3145 15.697 15.2835 15.7831 15.2318C17.1127 14.4809 18.308 13.5164 19.3207 12.3728L19.3172 12.3763ZM13.0378 13.6507C11.7564 14.8012 9.57949 16.4787 8.22578 16.9885C8.06389 17.0505 7.94333 17.1848 7.902 17.3536C7.86066 17.5224 7.90889 17.6981 8.02256 17.8255C10.3407 20.3573 12.249 19.2585 15.5248 17.3777C15.728 17.2606 15.9416 17.1366 16.286 16.9437L23.6367 21.1082C23.8261 21.2046 23.9708 21.3769 24.0293 21.5835C24.0879 21.7764 24.0672 21.9831 23.9742 22.1622C23.8778 22.3413 23.7159 22.4722 23.523 22.5308C23.3336 22.5859 23.1303 22.5652 22.9581 22.4688L17.9187 19.596C17.6707 19.4548 17.3538 19.5409 17.2126 19.7924C17.0714 20.0438 17.1575 20.3607 17.4089 20.5019L22.4414 23.3712C22.9202 23.6365 23.0993 24.2358 22.841 24.7181C22.4827 25.3691 21.7594 25.2589 21.0464 24.8731L20.9155 24.8007L15.9174 21.9521C15.6694 21.8109 15.3525 21.897 15.2079 22.1484C15.0666 22.3964 15.1528 22.7133 15.4042 22.858L20.4126 25.7135C20.8363 25.9443 20.9947 26.4748 20.7674 26.9019C20.5469 27.3049 19.8821 27.3841 19.4688 27.1499L14.4156 24.2703C14.1676 24.129 13.8507 24.2152 13.7095 24.4666C13.5683 24.7181 13.6544 25.0315 13.9058 25.1762L18.9418 28.0455L18.9865 28.0696C19.5136 28.3865 19.2414 29.7884 17.5915 28.9996L17.2539 28.8412C17.371 28.2763 17.2023 27.6907 16.7958 27.2808C16.3894 26.8709 15.8072 26.6952 15.2423 26.8055C15.1459 26.3232 14.8565 25.8995 14.4432 25.6309C14.0298 25.3622 13.5235 25.2761 13.0447 25.3863C12.9517 24.8214 12.6176 24.3219 12.1285 24.0223C11.6393 23.7226 11.0434 23.6468 10.4957 23.819C10.3511 23.2335 9.92394 22.7547 9.35904 22.548C8.79413 22.3379 8.16034 22.424 7.66777 22.7753C6.68607 21.3562 6.47251 20.3504 4.7089 19.193L6.77563 12.5003C8.3429 13.0204 9.53126 12.8206 10.7059 12.6243C11.0675 12.5623 11.4258 12.5037 11.7909 12.4693C12.187 12.8929 12.6038 13.2925 13.0481 13.6645L13.0378 13.6507ZM6.12117 11.0536L2.84885 10.0443L1.1128 19.3549L3.34142 20.0438L6.11772 11.0536H6.12117ZM16.1241 28.8584C16.1345 28.8412 16.1482 28.8205 16.1586 28.8033C16.3273 28.4829 16.2206 28.0903 15.914 27.8974C15.7624 27.8044 15.5833 27.7768 15.4111 27.8216C15.2389 27.8664 15.0942 27.9766 15.0046 28.1282L14.5259 28.9238C14.3812 29.1581 14.3915 29.4543 14.55 29.6748C14.7084 29.8987 14.984 30.0054 15.2492 29.9434C15.4283 29.8987 15.5764 29.785 15.666 29.6231L16.1207 28.8618L16.1241 28.8584ZM9.40382 24.6561L8.58401 26.0304C8.33601 26.3921 7.85033 26.4989 7.47487 26.2715C7.11664 26.0373 7.0133 25.5551 7.24409 25.1934L8.06044 23.8328C8.16722 23.6571 8.33945 23.5331 8.53924 23.4849C8.73902 23.4367 8.94914 23.4711 9.12481 23.5814C9.48649 23.8087 9.61049 24.2806 9.40726 24.6561H9.40382ZM14.1366 27.5529L14.0987 27.6149L13.4787 28.6552C13.3754 28.8412 13.1963 28.979 12.9896 29.0306C12.6761 29.0995 12.3558 28.979 12.1663 28.7206C11.9803 28.4623 11.9631 28.1144 12.1285 27.8423L12.7726 26.7676C12.8759 26.5781 13.055 26.4438 13.2651 26.3921C13.5717 26.3232 13.8886 26.4403 14.0781 26.6918C14.2675 26.9432 14.2916 27.2808 14.1401 27.5564L14.1366 27.5529ZM28.149 10.0443L24.8767 11.0536L27.653 20.0438L29.8816 19.3549L28.149 10.0409V10.0443Z" fill="#0E0E0E"/>
</g>
<defs>
<clipPath id="clip0_1_95">
<rect width="31.0009" height="30.994" fill="white"/>
</clipPath>
</defs>
</svg>
