<svg width="233" height="82" viewBox="0 0 233 82" fill="none" xmlns="http://www.w3.org/2000/svg">
<g id="Group 65570">
<path id="Vector" d="M44.454 49.1386C44.9049 49.9795 44.5056 50.9707 43.7798 51.6072C37.6024 57.0424 27.8595 57.9937 19.9486 56.0441C13.1041 54.3577 8.71653 50.872 4.65306 45.1362C-6.80687 28.9551 4.59904 6.93013 20.4513 3.35757C24.0708 2.54252 27.8031 2.57071 31.5284 2.85257C36.8531 3.25422 41.1914 4.16321 47.2796 5.31649C52.9849 6.3993 58.655 6.69995 64.2851 6.22314C66.345 6.04932 68.3744 5.73458 70.3733 5.27891C73.5794 4.55077 76.5789 3.1814 79.2565 1.35871C80.9806 0.184298 82.6013 0.600041 83.3999 2.54722C84.0294 4.0904 83.2237 5.17086 81.9976 6.03288C77.9436 8.89141 72.8043 10.5332 67.9258 11.2872C66.6645 11.4822 65.4337 11.7546 64.2381 12.1046C62.7067 12.5532 62.1735 13.6126 62.0913 15.1769C62.0373 16.2221 62.0114 17.1569 62.0185 17.979C62.0772 25.4131 62.3356 43.6071 62.6151 59.612C62.6856 63.5886 62.6151 66.8746 62.3967 69.4747C61.9973 74.2945 59.8364 77.1977 55.632 79.3774C54.2955 80.0703 53.1282 80.6223 52.1252 81.0357C51.6672 81.2236 51.2045 81.2776 50.7324 81.2001C49.3278 80.9676 49.6848 78.661 49.7506 77.2963C49.8022 76.2323 50.2109 75.6522 51.2679 75.2035C57.1494 72.7138 56.3555 67.3021 56.3625 62.0289C56.3743 49.4557 56.2615 22.2656 55.7918 15.043C55.7095 13.7911 55.4371 12.3747 54.2133 11.8204C53.9714 11.71 53.4782 11.6278 52.7336 11.5738C49.7294 11.3553 47.5051 11.1345 46.0559 10.9114C38.4151 9.73463 34.2671 8.92664 28.3081 8.57431C25.9781 8.43573 24.0191 8.55552 22.4337 8.93368C17.2122 10.1786 13.0149 13.5914 9.75941 17.8263C5.60668 23.2287 4.23732 29.6316 6.62608 36.1965C8.1857 40.4831 11.2791 44.6758 14.6896 47.4944C18.1048 50.313 23.641 51.1656 27.9887 50.7099C30.6076 50.4351 32.7474 49.8972 34.408 49.101C37.3135 47.7058 39.1386 46.8555 39.8831 46.5478C40.8579 46.1462 41.7833 46.2801 42.6595 46.9518C43.2443 47.3981 44.0523 48.3893 44.454 49.1386Z" fill="black"/>
<path id="Vector_2" d="M168.019 57.6813C169.799 58.1792 171.425 57.2961 172.562 55.9243C174.149 54.0053 173.908 51.4639 172.949 49.3124C172.684 48.7158 172.064 47.7903 171.084 46.5361C168.728 43.5155 165.637 39.5366 161.816 34.6017C157.811 29.4343 155.765 21.3214 161.494 16.3419C164.125 14.0588 167.422 13.0864 170.866 13.5773C176.2 14.3407 180.508 18.336 180.423 23.8957C180.404 24.9997 179.514 25.7278 178.389 25.8405C177.114 25.9697 176.068 25.9392 175.251 25.7513C174.739 25.6315 174.323 25.3074 174.001 24.7765C173.607 24.1236 173.785 23.2968 173.504 22.4935C173.074 21.2744 172.179 20.4077 170.814 19.8886C169.619 19.4353 168.425 19.4752 167.23 20.0084C165.358 20.8422 164.519 22.3643 164.71 24.5769C164.914 26.9562 165.792 29.1289 167.34 31.0972C171.23 36.0368 174.72 40.5653 177.814 44.6828C180.832 48.704 181.37 53.5779 179.026 58.0265C177.609 60.7159 175.446 62.5034 172.541 63.3936C167.749 64.8593 163.11 63.4876 159.974 59.5744C158.685 57.9702 157.973 55.8797 157.959 53.9161C157.959 53.545 157.952 52.5514 157.94 50.9331C157.933 49.963 158.039 49.3147 158.26 48.9906C159.122 47.7222 160.728 47.9595 162.415 47.9994C163.324 48.0205 163.979 48.3682 164.381 49.0423C164.583 49.3829 164.677 49.9865 164.66 50.8532C164.644 51.7246 164.641 52.5702 164.648 53.3853C164.672 55.6401 165.907 57.0894 168.019 57.6813Z" fill="black"/>
<path id="Vector_3" d="M80.2365 36.8871C81.8078 36.8871 82.6769 36.8894 82.8437 36.8965C83.8067 36.9317 84.4221 36.5183 84.6898 35.6563C84.711 35.5882 84.7204 35.5154 84.7227 35.4426C84.7627 28.1964 84.7744 21.8898 84.758 16.5227C84.7533 14.9302 85.7774 14.6601 87.1984 14.6742C88.4902 14.686 89.162 14.6907 89.216 14.6907C90.6277 14.6695 91.3723 15.1651 91.3699 16.5768C91.3676 21.3308 91.3652 35.9828 91.3629 60.5327C91.3629 61.2679 91.2854 61.7753 91.1327 62.0571C90.8861 62.5175 90.4492 62.7524 89.8267 62.7594C88.2483 62.7806 87.3417 62.7923 87.1068 62.7947C85.7257 62.8064 84.7627 62.5786 84.7556 61.0283C84.7274 56.1827 84.7321 51.3065 84.7697 46.4045C84.7721 45.9935 84.7533 45.31 84.7133 44.3517C84.6664 43.2313 83.6235 42.9165 82.6041 42.893C82.0709 42.8813 81.2817 42.8766 80.2365 42.8742C79.1912 42.8742 78.402 42.8813 77.8665 42.893C76.8495 42.9142 75.8066 43.2289 75.7596 44.3493C75.7173 45.3076 75.6985 45.9911 75.7009 46.4022C75.7361 51.3042 75.7385 56.1804 75.7079 61.026C75.7009 62.5762 74.7379 62.8041 73.3568 62.7923C73.1219 62.7923 72.2152 62.7782 70.6368 62.7547C70.0144 62.7477 69.5775 62.5128 69.3309 62.0524C69.1782 61.7706 69.1007 61.2632 69.103 60.528C69.1101 35.9781 69.1148 21.3261 69.1148 16.5721C69.1124 15.1604 69.857 14.6648 71.2686 14.686C71.3227 14.686 71.9944 14.6813 73.2863 14.6719C74.7073 14.6578 75.7314 14.9279 75.7267 16.5204C75.7079 21.8875 75.7173 28.1941 75.7526 35.4402C75.7526 35.513 75.7643 35.5858 75.7854 35.6539C76.0532 36.516 76.6686 36.9317 77.6316 36.8965C77.7984 36.8894 78.6651 36.8871 80.2365 36.8871Z" fill="black"/>
<path id="Vector_4" d="M138.823 43.29C139.103 43.29 139.288 43.1209 139.375 42.7803C141.794 33.4296 144.11 24.5369 146.325 16.1C146.649 14.8598 147.547 14.6719 148.817 14.6836C149.444 14.6907 150.668 14.6977 152.486 14.7001C154.299 14.7047 154.469 16.1211 154.424 17.7441C154.419 17.9555 154.415 32.321 154.41 60.8428C154.41 63.3983 151.716 62.689 150.177 62.7876C148.963 62.8651 148.049 62.5104 147.767 61.3548C147.751 61.2891 147.744 61.2209 147.744 61.1528C147.751 46.1603 147.751 38.4467 147.744 38.0122C147.744 37.9323 147.716 37.8736 147.662 37.8337C147.54 37.7444 147.366 37.7749 147.276 37.8994C147.258 37.9276 147.241 37.9581 147.234 37.991C143.319 53.1433 141.36 60.7253 141.357 60.7371C140.946 62.299 140.533 62.8369 138.818 62.8369C137.104 62.8369 136.688 62.2967 136.279 60.7347C136.277 60.723 134.32 53.141 130.414 37.9863C130.377 37.8384 130.226 37.7491 130.078 37.7867C130.045 37.7961 130.015 37.8102 129.987 37.829C129.933 37.8689 129.907 37.9276 129.905 38.0075C129.897 38.442 129.895 46.1556 129.893 61.1481C129.893 61.2162 129.886 61.2844 129.869 61.3501C129.587 62.5057 128.671 62.8604 127.457 62.7806C125.919 62.6819 123.224 63.3889 123.227 60.8334C123.239 32.3116 123.241 17.9461 123.236 17.7347C123.192 16.1117 123.361 14.6954 125.174 14.693C126.992 14.693 128.216 14.686 128.843 14.6789C130.114 14.6672 131.011 14.8551 131.335 16.0953C133.545 24.5346 135.856 33.4296 138.271 42.7803C138.358 43.1209 138.544 43.29 138.823 43.29Z" fill="black"/>
<path id="Vector_5" d="M225.88 41.9417C226 42.0263 226.166 41.9981 226.249 41.8783C226.279 41.8337 226.296 41.782 226.298 41.7257C226.298 35.5459 226.303 27.1817 226.305 16.6308C226.305 15.7688 226.641 15.1933 227.306 14.8997C227.663 14.7423 228.252 14.6695 229.074 14.6789C230.993 14.7024 232.978 14.2444 232.983 16.9831C233.006 31.4166 233.006 46.1884 232.98 61.3031C232.98 62.3859 232.44 62.8393 231.355 62.7923C231.172 62.7829 229.781 62.7782 227.186 62.7782C226.312 62.7782 226.143 62.0642 225.831 61.1669C222.22 50.7921 219.263 42.2494 216.959 35.5365C216.91 35.3979 216.759 35.3227 216.618 35.3697C216.567 35.3885 216.52 35.4214 216.489 35.4684C216.416 35.5741 216.379 35.7338 216.379 35.9475C216.374 38.3363 216.374 46.5102 216.379 60.4693C216.379 61.2374 216.292 61.7447 216.113 61.9866C215.655 62.6114 215.096 62.7876 214.263 62.7852C213.64 62.7852 212.762 62.7829 211.622 62.7805C210.709 62.7805 210.115 62.3695 209.84 61.5474C209.814 61.4722 209.8 61.3947 209.8 61.3149C209.8 57.7564 209.8 42.9376 209.797 16.8539C209.797 16.1281 209.896 15.649 210.091 15.4188C210.568 14.8527 211.092 14.6812 211.89 14.6859C212.912 14.693 213.938 14.693 214.967 14.6906C216.748 14.6859 217.001 16.2009 217.457 17.5445C222.246 31.6562 225.006 39.7033 225.737 41.6881C225.788 41.8267 225.835 41.9112 225.88 41.9417Z" fill="black"/>
<path id="Vector_6" d="M118.547 24.8705C118.547 23.2568 118.435 22.0425 118.209 21.2298C116.87 16.3842 112.201 13.4599 107.29 13.4646C102.38 13.4669 97.7157 16.3982 96.3816 21.2462C96.1584 22.0589 96.048 23.2733 96.0504 24.8869C96.0551 33.8853 96.0598 42.6182 96.0668 51.0834C96.0668 53.1668 96.1913 54.6654 96.4332 55.5814C97.6992 60.3331 102.373 63.9667 107.327 63.962C112.281 63.9597 116.95 60.319 118.207 55.5673C118.449 54.6489 118.571 53.1504 118.569 51.0669C118.562 42.6018 118.554 33.8688 118.547 24.8705ZM111.67 54.01C111.189 55.7529 110.056 56.9766 108.269 57.6789C107.971 57.794 107.647 57.8527 107.294 57.8527C106.942 57.8527 106.62 57.794 106.322 57.6765C104.534 56.9743 103.402 55.7505 102.921 54.0077C102.712 53.2326 102.759 40.4596 102.766 25.8288C102.766 23.8487 102.876 22.625 103.095 22.1529C103.832 20.5698 105.446 19.6138 107.308 19.6138C109.171 19.6138 110.785 20.5721 111.52 22.1576C111.738 22.6273 111.881 53.2349 111.67 54.01Z" fill="black"/>
<path id="Vector_7" d="M205.692 21.2298C204.355 16.3818 199.688 13.4552 194.779 13.4552C189.87 13.4528 185.2 16.3794 183.864 21.2251C183.641 22.0378 183.528 23.2521 183.528 24.8658C183.526 33.8641 183.523 42.5971 183.521 51.0622C183.521 53.1456 183.643 54.6442 183.885 55.5626C185.146 60.3119 189.816 63.9503 194.769 63.9503C199.723 63.9526 204.397 60.3166 205.659 55.5649C205.901 54.6465 206.023 53.148 206.023 51.0646C206.023 42.6018 206.025 33.8688 206.025 24.8705C206.025 23.2568 205.915 22.0425 205.692 21.2298ZM199.134 54.0006C198.654 55.7411 197.522 56.9648 195.735 57.6671C195.439 57.7846 195.115 57.8433 194.762 57.8433C194.41 57.8433 194.088 57.7846 193.79 57.6671C192.003 56.9648 190.87 55.7435 190.391 54.0006C190.18 53.2255 190.248 52.2202 190.241 51.2666C190.227 48.9342 190.22 40.4573 190.22 25.8358C190.22 23.8558 190.328 22.632 190.546 22.1623C191.284 20.5792 192.895 19.6232 194.758 19.6232C196.62 19.6232 198.232 20.5768 198.969 22.1623C199.188 22.632 199.296 23.8558 199.296 25.8335C199.3 40.4573 199.296 48.9342 199.284 51.2642C199.277 52.2179 199.345 53.2255 199.134 54.0006Z" fill="black"/>
<path id="Vector_8" d="M71.4329 74.0244L71.1745 75.7391H70.1621L71.4023 68.5141H72.6942L73.9344 75.7391H72.922L72.6636 74.0244H71.4329ZM72.5274 73.1248L72.0412 69.9609L71.5667 73.1248H72.5274Z" fill="black"/>
<path id="Vector_9" d="M78.3147 75.7414H77.3024V68.5164H78.3147V75.7414Z" fill="black"/>
<path id="Vector_10" d="M85.0534 72.2675C85.3541 72.4648 85.5279 72.7936 85.5279 73.2704V75.7508H84.5155V73.4466C84.5155 72.9204 84.33 72.7231 83.7921 72.7231H83.0076V75.7508H81.9952V68.5164H84.0834C84.9524 68.5164 85.5302 69.1059 85.5302 69.9633V71.2645C85.5302 71.739 85.3541 72.0702 85.0558 72.2675H85.0534ZM83.7921 71.8118C84.33 71.8118 84.5155 71.6145 84.5155 71.0884V70.1371C84.5155 69.6203 84.33 69.423 83.7921 69.423H83.0076V71.8118H83.7921Z" fill="black"/>
<path id="Vector_11" d="M95.9564 69.3127C95.5125 69.3127 95.2424 69.5804 95.2424 70.0361V74.2217C95.2424 74.6868 95.4913 74.9451 95.9564 74.9451C96.4215 74.9451 96.6798 74.6868 96.6798 74.2217V73.2188H97.6922V74.3979C97.6922 75.2669 97.1026 75.8447 95.9564 75.8447C94.8102 75.8447 94.23 75.2669 94.23 74.3979V69.8599C94.23 68.9909 94.8196 68.4131 95.9564 68.4131C97.0932 68.4131 97.6922 69.012 97.6922 69.8599V71.039H96.6798V70.0361C96.6798 69.5804 96.4309 69.3127 95.9564 69.3127Z" fill="black"/>
<path id="Vector_12" d="M104.835 69.8599V74.4073C104.835 75.2763 104.246 75.8541 103.099 75.8541C101.953 75.8541 101.373 75.2763 101.373 74.4073V69.8599C101.373 69.0026 101.962 68.4131 103.099 68.4131C104.236 68.4131 104.835 69.0238 104.835 69.8599ZM103.097 74.9451C103.571 74.9451 103.82 74.6962 103.82 74.2311V70.0337C103.82 69.5687 103.571 69.3197 103.097 69.3197C102.653 69.3197 102.383 69.5687 102.383 70.0337V74.2311C102.383 74.6962 102.632 74.9451 103.097 74.9451Z" fill="black"/>
<path id="Vector_13" d="M111.985 75.7508H110.775L109.523 71.3984V75.7508H108.511V68.5164H109.73L110.982 72.8688V68.5164H111.985V75.7508Z" fill="black"/>
<path id="Vector_14" d="M119.201 69.9633V74.2945C119.201 75.1636 118.623 75.7414 117.754 75.7414H115.666V68.5164H117.754C118.623 68.5164 119.201 69.0942 119.201 69.9633ZM117.463 74.8418C118 74.8418 118.186 74.6445 118.186 74.1183V70.1394C118.186 69.6133 118 69.416 117.463 69.416H116.678V74.8418H117.463Z" fill="black"/>
<path id="Vector_15" d="M123.891 75.7414H122.879V68.5164H123.891V75.7414Z" fill="black"/>
<path id="Vector_16" d="M129.606 69.4254V75.7508H128.603V69.4254H127.156V68.5164H131.053V69.4254H129.606Z" fill="black"/>
<path id="Vector_17" d="M135.333 75.7414H134.32V68.5164H135.333V75.7414Z" fill="black"/>
<path id="Vector_18" d="M142.473 69.8599V74.4073C142.473 75.2763 141.883 75.8541 140.737 75.8541C139.591 75.8541 139.011 75.2763 139.011 74.4073V69.8599C139.011 69.0026 139.6 68.4131 140.737 68.4131C141.874 68.4131 142.473 69.0238 142.473 69.8599ZM140.737 74.9451C141.212 74.9451 141.461 74.6962 141.461 74.2311V70.0337C141.461 69.5687 141.212 69.3197 140.737 69.3197C140.293 69.3197 140.023 69.5687 140.023 70.0337V74.2311C140.023 74.6962 140.272 74.9451 140.737 74.9451Z" fill="black"/>
<path id="Vector_19" d="M149.625 75.7508H148.416L147.164 71.3984V75.7508H146.151V68.5164H147.37L148.62 72.8688V68.5164H149.623V75.7508H149.625Z" fill="black"/>
<path id="Vector_20" d="M154.315 75.7414H153.303V68.5164H154.315V75.7414Z" fill="black"/>
<path id="Vector_21" d="M161.468 75.7508H160.258L159.006 71.3984V75.7508H157.994V68.5164H159.213L160.462 72.8688V68.5164H161.465V75.7508H161.468Z" fill="black"/>
<path id="Vector_22" d="M166.875 69.3127C166.41 69.3127 166.161 69.5804 166.161 70.0361V74.2217C166.161 74.6868 166.41 74.9451 166.875 74.9451C167.34 74.9451 167.598 74.6868 167.598 74.2217V73.2188H166.854V72.3098H168.611V74.3979C168.611 75.2669 168.021 75.8447 166.875 75.8447C165.729 75.8447 165.148 75.2669 165.148 74.3979V69.8599C165.148 68.9909 165.738 68.4131 166.875 68.4131C168.012 68.4131 168.611 69.012 168.611 69.8599V71.039H167.598V70.0361C167.598 69.5804 167.349 69.3127 166.875 69.3127Z" fill="black"/>
<path id="Vector_23" d="M180.63 73.2188V74.4073C180.63 75.2434 180.092 75.8541 178.967 75.8541C177.842 75.8541 177.313 75.2763 177.313 74.4073V73.1154C177.313 72.702 177.459 72.3614 177.736 72.1242C177.457 71.8964 177.313 71.5652 177.313 71.1424V69.8505C177.313 68.9932 177.83 68.4037 178.967 68.4037C180.104 68.4037 180.63 69.0144 180.63 69.8505V71.039H179.617V70.0267C179.617 69.5616 179.42 69.3127 178.967 69.3127C178.514 69.3127 178.326 69.5616 178.326 70.0267V70.9474C178.326 71.4125 178.523 71.6615 178.967 71.6615H179.38V72.5705H178.967C178.523 72.5705 178.326 72.85 178.326 73.3151V74.2358C178.326 74.7009 178.502 74.9498 178.967 74.9498C179.432 74.9498 179.617 74.7009 179.617 74.2358L179.627 72.3239H181.581V73.2234H180.63V73.2188Z" fill="black"/>
<path id="Vector_24" d="M193.229 75.7414H192.217V72.4742H190.779V75.7414H189.767V68.5164H190.779V71.5769H192.217V68.5164H193.229V75.7414Z" fill="black"/>
<path id="Vector_25" d="M197.919 71.5746H199.822V72.4742H197.919V74.8418H200.132V75.7508H196.907V68.5164H200.132V69.416H197.919V71.5769V71.5746Z" fill="black"/>
<path id="Vector_26" d="M204.565 74.0244L204.306 75.7391H203.294L204.534 68.5141H205.826L207.066 75.7391H206.054L205.795 74.0244H204.565ZM205.661 73.1248L205.175 69.9609L204.701 73.1248H205.661Z" fill="black"/>
<path id="Vector_27" d="M212.471 69.4254V75.7508H211.468V69.4254H210.021V68.5164H213.917V69.4254H212.471Z" fill="black"/>
<path id="Vector_28" d="M218.197 75.7414H217.184V68.5164H218.197V75.7414Z" fill="black"/>
<path id="Vector_29" d="M225.349 75.7508H224.139L222.887 71.3984V75.7508H221.875V68.5164H223.094L224.344 72.8688V68.5164H225.347V75.7508H225.349Z" fill="black"/>
<path id="Vector_30" d="M230.754 69.3127C230.288 69.3127 230.039 69.5804 230.039 70.0361V74.2217C230.039 74.6868 230.288 74.9451 230.754 74.9451C231.219 74.9451 231.477 74.6868 231.477 74.2217V73.2188H230.732V72.3098H232.489V74.3979C232.489 75.2669 231.9 75.8447 230.754 75.8447C229.607 75.8447 229.027 75.2669 229.027 74.3979V69.8599C229.027 68.9909 229.617 68.4131 230.754 68.4131C231.89 68.4131 232.489 69.012 232.489 69.8599V71.039H231.477V70.0361C231.477 69.5804 231.228 69.3127 230.754 69.3127Z" fill="black"/>
</g>
</svg>
