<svg width="24" height="17" viewBox="0 0 24 17" fill="none" xmlns="http://www.w3.org/2000/svg">
<path id="Symbol" d="M23.1483 2.98543C23.6557 4.76125 23.6557 8.56659 23.6557 8.56659C23.6557 8.56659 23.6557 12.3297 23.1483 14.1478C22.8947 15.1625 22.0913 15.9236 21.1188 16.1773C19.3007 16.6424 12.1129 16.6424 12.1129 16.6424C12.1129 16.6424 4.88271 16.6424 3.0646 16.1773C2.09213 15.9236 1.28878 15.1625 1.03509 14.1478C0.52771 12.3297 0.52771 8.56659 0.52771 8.56659C0.52771 8.56659 0.52771 4.76125 1.03509 2.98543C1.28878 1.97067 2.09213 1.16732 3.0646 0.913629C4.88271 0.40625 12.1129 0.40625 12.1129 0.40625C12.1129 0.40625 19.3007 0.40625 21.1188 0.913629C22.0913 1.16732 22.8947 1.97067 23.1483 2.98543ZM9.74509 11.9914L15.7491 8.56659L9.74509 5.14179V11.9914Z" fill="white"/>
</svg>
