<svg width="18" height="17" viewBox="0 0 18 17" fill="none" xmlns="http://www.w3.org/2000/svg">
<path id="Vector" d="M0.722351 2.215C0.722351 1.65158 0.917524 1.19061 1.30787 0.832074C1.69822 0.473539 2.20375 0.294271 2.82446 0.294271C3.44518 0.294271 3.94431 0.473539 4.32186 0.832074C4.69941 1.19061 4.88818 1.66439 4.88818 2.25341C4.88818 2.79121 4.70261 3.23298 4.33146 3.57871C3.92192 3.95005 3.40998 4.13572 2.79567 4.13572H2.77647C2.16215 4.13572 1.66622 3.95005 1.28867 3.57871C0.911125 3.20737 0.722351 2.7528 0.722351 2.215ZM0.933522 16.7549V5.65309H4.63862V16.7549H0.933522ZM6.69274 16.7549H10.3978V10.5509C10.3978 10.1412 10.4426 9.84027 10.5322 9.6482C10.6986 9.25125 10.9354 8.93753 11.2425 8.70705C11.5497 8.43814 11.9464 8.30369 12.4328 8.30369C13.6742 8.30369 14.2949 9.14241 14.2949 10.8198V16.7549H18V10.3781C18 8.72625 17.6129 7.48098 16.8386 6.64227C16.0643 5.80355 15.0372 5.38419 13.7574 5.38419C12.324 5.38419 11.2041 5.99882 10.3978 7.22809V7.2665H10.3786L10.3978 7.22809V5.65309H6.69274C6.71833 6.11407 6.73113 7.21528 6.73113 8.95674C6.73113 9.9043 6.72473 11.7674 6.71194 14.546L6.69274 16.7549Z" fill="white"/>
</svg>
