<svg width="41" height="54" viewBox="0 0 41 54" fill="none" xmlns="http://www.w3.org/2000/svg">
<path id="Vector" d="M19.4062 1.68356C19.2235 1.0363 18.6755 0.564305 17.9447 0.329688C15.6311 -0.259614 6.61805 2.21352 4.97385 3.91795C4.42579 4.4479 4.2431 5.16004 4.42579 5.74382C4.66985 6.27378 15.8138 23.4684 15.8138 23.4684C17.458 26.0589 18.7968 25.7056 19.2235 25.5289C19.6517 25.4116 20.989 24.999 20.8677 21.9407C20.6237 18.3496 19.5275 2.44952 19.4062 1.68356ZM14.595 33.9517C15.5084 33.717 16.1178 32.8917 16.1792 31.8912C16.2391 30.8313 15.6911 29.8886 14.7776 29.5353L12.2243 28.5348C3.51806 25.0017 3.15125 24.8844 2.72451 24.8844C2.05513 24.8251 1.43998 25.1784 1.02037 25.8256C0.164018 27.1809 -0.198504 31.5379 0.106927 34.4237C0.228244 35.3649 0.410932 36.1902 0.654992 36.6608C1.02037 37.3081 1.56843 37.7207 2.23781 37.7207C2.66599 37.7207 2.90719 37.6614 11.0068 35.1303L14.595 33.9517ZM19.1622 37.1908C18.1888 36.7767 17.0926 37.0141 16.4832 37.7801L14.7177 39.8405C8.62762 46.9067 8.38356 47.2006 8.20087 47.6133C8.10165 47.8566 8.06019 48.1183 8.07955 48.3792C8.09771 48.7792 8.27155 49.1578 8.56624 49.4391C9.9678 51.087 16.7273 53.5601 18.9195 53.2068C19.2614 53.1649 19.5846 53.0322 19.8532 52.8234C20.1218 52.6146 20.3252 52.3379 20.441 52.0241C20.5637 51.61 20.6237 51.3174 20.6237 43.0148V39.2512C20.7464 38.368 20.137 37.5441 19.1622 37.1908ZM40.354 38.8469C39.9886 38.6109 39.746 38.4936 31.6477 35.9017C31.6477 35.9017 28.1153 34.7245 28.0554 34.7245C27.199 34.3712 26.2285 34.6652 25.5577 35.4905C24.8869 36.3158 24.767 37.3743 25.315 38.1982L26.7152 40.4947C31.5264 48.1501 31.8918 48.6801 32.1958 48.974C32.7439 49.3881 33.4133 49.446 34.144 49.1507C36.215 48.3226 40.6608 42.7912 40.9648 40.6134C41.0847 39.8999 40.902 39.2512 40.354 38.84V38.8469ZM27.3232 30.1315C28.6077 29.8955 39.0752 27.4818 39.9287 26.8925C40.4767 26.5392 40.785 25.8919 40.7194 25.1259V25.068C40.4767 22.8294 36.5175 17.0634 34.5693 16.1166C33.9 15.8227 33.1692 15.8227 32.6211 16.176C32.2558 16.412 32.0117 16.7653 27.0791 23.3594L24.8255 26.3542C24.2175 27.0608 24.2175 28.0628 24.8255 28.946C25.4349 29.8886 26.0444 30.3565 27.3232 30.1246V30.1315Z" fill="#D32323"/>
</svg>
