<svg width="10" height="19" viewBox="0 0 10 19" fill="none" xmlns="http://www.w3.org/2000/svg">
<path id="Vector" d="M6.62895 18.168V10.2738H9.39338L9.81572 7.20063H6.62895V5.24149C6.62895 4.7421 6.72494 4.38357 6.91692 4.16588C7.16008 3.88418 7.59522 3.74333 8.22234 3.74333H9.9309V0.996689C9.73893 0.971079 9.43817 0.945469 9.02863 0.919859C8.4911 0.894251 7.95997 0.881445 7.43524 0.881445C6.61616 0.881445 5.89305 1.0383 5.26594 1.35202C4.63883 1.66574 4.15249 2.12671 3.80694 2.73494C3.46139 3.34317 3.28861 4.07625 3.28861 4.93417V7.20063H0.50499V10.2738H3.28861V18.168H6.62895Z" fill="white"/>
</svg>
