<svg width="20" height="21" viewBox="0 0 20 21" fill="none" xmlns="http://www.w3.org/2000/svg">
<path id="Vector" d="M12.8008 10.5243C12.8008 11.1133 12.6281 11.6831 12.2825 12.2337C11.9626 12.7331 11.5018 13.1109 10.9003 13.367C10.3372 13.5975 9.74526 13.6551 9.12454 13.5398C8.50383 13.4246 7.9759 13.1493 7.54076 12.7139C7.10562 12.2786 6.82726 11.744 6.70567 11.1101C6.58409 10.4763 6.64488 9.89047 6.88805 9.35266C7.13121 8.77644 7.51196 8.31547 8.03029 7.96974C8.54862 7.62401 9.11494 7.45114 9.72926 7.45114C10.1388 7.45114 10.5324 7.53117 10.9099 7.69124C11.2874 7.8513 11.617 8.07218 11.8986 8.35389C12.1801 8.63559 12.4009 8.96532 12.5609 9.34306C12.7209 9.7208 12.8008 10.1145 12.8008 10.5243ZM19.328 6.29871V14.7499C19.328 15.4542 19.1904 16.136 18.9152 16.7955C18.64 17.4549 18.2497 18.0375 17.7442 18.5433C17.2386 19.0491 16.6563 19.4397 15.9972 19.715C15.3381 19.9903 14.6566 20.1279 13.9527 20.1279H5.50584C4.80193 20.1279 4.12043 19.9903 3.46132 19.715C2.80221 19.4397 2.21988 19.0491 1.71435 18.5433C1.20882 18.0375 0.818476 17.4549 0.543313 16.7955C0.268151 16.136 0.130569 15.4542 0.130569 14.7499V6.29871C0.130569 5.59444 0.268151 4.91259 0.543313 4.25314C0.818476 3.59369 1.20882 3.01107 1.71435 2.50528C2.21988 1.99949 2.80221 1.60894 3.46132 1.33364C4.12043 1.05833 4.80193 0.920679 5.50584 0.920679H13.9527C14.6566 0.920679 15.3381 1.05833 15.9972 1.33364C16.6563 1.60894 17.2386 1.99949 17.7442 2.50528C18.2497 3.01107 18.64 3.59369 18.9152 4.25314C19.1904 4.91259 19.328 5.59444 19.328 6.29871ZM14.3174 10.5243C14.3174 9.60236 14.0615 8.74443 13.5495 7.95053C13.3064 7.57919 13.0056 7.24947 12.6473 6.96136C12.2889 6.67325 11.905 6.43956 11.4954 6.26029C10.6251 5.90176 9.73566 5.81213 8.82698 5.99139C7.89271 6.19627 7.11202 6.61883 6.4849 7.25907C5.81939 7.92492 5.39705 8.71242 5.21788 9.62156C5.12829 10.0569 5.10589 10.5051 5.15068 10.9661C5.19548 11.427 5.30426 11.8656 5.47704 12.2818C5.64982 12.6979 5.88019 13.0821 6.16815 13.4342C6.45611 13.7863 6.79206 14.0905 7.17601 14.3465C7.9695 14.8587 8.82698 15.1148 9.74846 15.1148C10.35 15.1148 10.9323 14.9964 11.4954 14.7595C12.0585 14.5226 12.5577 14.1865 12.9928 13.7511C13.428 13.3158 13.7607 12.8196 13.9911 12.2626C14.2214 11.7056 14.343 11.1197 14.3558 10.5051L14.3174 10.5243ZM15.8532 5.53042C15.8532 5.28713 15.7892 5.07585 15.6613 4.89658C15.5205 4.6917 15.3477 4.54765 15.1429 4.46442C14.9382 4.38119 14.7206 4.35878 14.4902 4.39719C14.2598 4.43561 14.0583 4.54125 13.8855 4.71411C13.7127 4.88698 13.6071 5.08545 13.5687 5.30954C13.5303 5.53362 13.5495 5.7545 13.6263 5.97219C13.6903 6.15145 13.8311 6.32432 14.0487 6.49078C14.2534 6.63163 14.4646 6.70206 14.6822 6.70206C14.9765 6.70206 15.2517 6.58682 15.5077 6.35633C15.7252 6.13865 15.834 5.86975 15.834 5.54963L15.8532 5.53042Z" fill="white"/>
</svg>
