<svg width="56" height="47" viewBox="0 0 56 47" fill="none" xmlns="http://www.w3.org/2000/svg">
<g id="Layer_1" clip-path="url(#clip0_1_53)">
<path id="Vector" d="M18.7216 0.901489H37.2784C37.2887 0.901489 37.2979 0.904994 37.3047 0.912005L55.9874 19.5293C56.0023 19.5445 56.0034 19.5679 55.9886 19.5842C55.9817 19.5924 55.9714 19.5959 55.9611 19.5959H37.4282C37.418 19.5959 37.4077 19.5913 37.4008 19.5842L21.3756 3.21025C21.3608 3.19623 21.3379 3.19623 21.323 3.21025L5.29903 19.5842C5.29217 19.5913 5.28188 19.5959 5.27158 19.5959H0.0377359C0.0171527 19.5959 0 19.5796 0 19.5574C0 19.5469 0.00457404 19.5363 0.0114351 19.5293L18.6953 0.912005C18.7021 0.904994 18.7113 0.901489 18.7216 0.901489Z" fill="#FB8C00"/>
<path id="Vector_2" d="M37.6695 46.8898L26.6712 34.5538C26.6461 34.5258 26.6106 34.5094 26.5729 34.5094C22.2927 34.5106 17.737 34.5059 12.9045 34.4931C11.1469 34.4896 9.71411 33.1237 9.70497 31.3092C9.70039 30.392 9.69925 26.1752 9.70268 18.6565C9.70268 18.6262 9.71411 18.5981 9.7347 18.5771L21.3196 6.74001C21.3368 6.72249 21.3642 6.72249 21.3814 6.74001L36.3808 22.0659C36.3956 22.0811 36.4151 22.0893 36.4345 22.0893H46.1807C46.2012 22.0893 46.2184 22.1068 46.2184 22.1279C46.2184 27.6275 46.2195 30.4247 46.2218 30.5193C46.2424 31.3594 46.1898 31.9576 46.064 32.3163C45.6112 33.6039 44.502 34.4732 43.1446 34.5048C42.4082 34.5223 40.6324 34.5363 37.8182 34.5468C37.7713 34.5468 37.7324 34.5865 37.7324 34.6344V46.8641C37.7324 46.8851 37.7153 46.9015 37.6958 46.9015C37.6855 46.9015 37.6764 46.8968 37.6695 46.8898Z" fill="white"/>
</g>
<defs>
<clipPath id="clip0_1_53">
<rect width="56" height="46" fill="white" transform="translate(0 0.901489)"/>
</clipPath>
</defs>
</svg>
