<svg width="19" height="19" viewBox="0 0 19 19" fill="none" xmlns="http://www.w3.org/2000/svg">
<g id="Vector">
<path d="M9.33941 7.83223V11.4369H14.3658C14.1451 12.5961 13.4827 13.5777 12.4893 14.2377L15.5204 16.5816C17.2865 14.957 18.3053 12.5708 18.3053 9.73619C18.3053 9.0762 18.2459 8.44151 18.1355 7.83233L9.33941 7.83223Z" fill="white"/>
<path d="M4.10526 11.2962L3.42163 11.8177L1.0018 13.6962C2.53858 16.7339 5.68832 18.8324 9.3392 18.8324C11.8608 18.8324 13.9751 18.0031 15.5204 16.5816L12.4893 14.2377C11.6573 14.7962 10.5957 15.1347 9.3392 15.1347C6.91093 15.1347 4.8478 13.5016 4.10908 11.3016L4.10526 11.2962Z" fill="white"/>
<path d="M1.00181 5.353C0.365053 6.60527 0 8.01839 0 9.52453C0 11.0307 0.365046 12.4439 1.0018 13.6962C1.0018 13.7046 4.10938 11.293 4.10938 11.293C3.92259 10.7345 3.81218 10.1422 3.81218 9.52443C3.81218 8.90665 3.92259 8.31438 4.10938 7.75591L1.00181 5.353Z" fill="white"/>
<path d="M9.33939 3.92299C10.7149 3.92299 11.9375 4.39683 12.9139 5.31069L15.5884 2.64532C13.9667 1.13917 11.8611 0.216797 9.33939 0.216797C5.68851 0.216797 2.53858 2.30681 1.00181 5.353L4.10938 7.75591C4.84801 5.55587 6.91112 3.92299 9.33939 3.92299Z" fill="white"/>
</g>
</svg>
